<?xml version="1.0" encoding="UTF-8" standalone="no"?>
<!-- Created with Inkscape (http://www.inkscape.org/) -->

<svg
   width="73.120003mm"
   height="156.26001mm"
   viewBox="0 0 73.120002 156.26001"
   version="1.1"
   id="svg5"
   xml:space="preserve"
   inkscape:version="1.2.2 (b0a84865, 2022-12-01)"
   sodipodi:docname="iPhone 15 Pro Max svg.svg"
   xmlns:inkscape="http://www.inkscape.org/namespaces/inkscape"
   xmlns:sodipodi="http://sodipodi.sourceforge.net/DTD/sodipodi-0.dtd"
   xmlns="http://www.w3.org/2000/svg"
   xmlns:svg="http://www.w3.org/2000/svg"><sodipodi:namedview
     id="namedview7"
     pagecolor="#ffffff"
     bordercolor="#000000"
     borderopacity="0.25"
     inkscape:showpageshadow="2"
     inkscape:pageopacity="0.0"
     inkscape:pagecheckerboard="0"
     inkscape:deskcolor="#d1d1d1"
     inkscape:document-units="mm"
     showgrid="false"
     inkscape:zoom="0.78127806"
     inkscape:cx="-21.119241"
     inkscape:cy="202.87271"
     inkscape:window-width="1390"
     inkscape:window-height="1027"
     inkscape:window-x="0"
     inkscape:window-y="62"
     inkscape:window-maximized="0"
     inkscape:current-layer="svg5" /><defs
     id="defs2"><clipPath
       clipPathUnits="userSpaceOnUse"
       id="clipPath77"><path
         d="M 18189,0 H 256933 V 390177 H 18189 V 0"
         id="path75" /></clipPath><clipPath
       clipPathUnits="userSpaceOnUse"
       id="clipPath189"><path
         d="M 18189,0 H 256933 V 390177 H 18189 V 0"
         id="path187" /></clipPath><clipPath
       clipPathUnits="userSpaceOnUse"
       id="clipPath201"><path
         d="M 18189,0 H 256933 V 390177 H 18189 V 0"
         id="path199" /></clipPath></defs><g
     inkscape:label="Layer 1"
     inkscape:groupmode="layer"
     id="layer1"
     transform="translate(-272.00203,-78.619886)" /><g
     id="g69"
     transform="matrix(5.4709146e-4,0,0,-5.4799995e-4,-39.939318,173.27102)"
     style="stroke:#ff0000"><g
       id="g71"
       style="stroke:#ff0000"><g
         id="g73"
         clip-path="url(#clipPath77)"
         style="stroke:#ff0000"><g
           id="g83"
           transform="rotate(90,-81328,177376.5)"
           style="stroke:#ff0000" /><g
           id="g87"
           transform="rotate(90,-82461.5,157703)"
           style="stroke:#ff0000" /><g
           id="g91"
           transform="rotate(90,-65310,193394.5)"
           style="stroke:#ff0000" /><g
           id="g95"
           transform="rotate(90,-82531,210615.5)"
           style="stroke:#ff0000" /><g
           id="g99"
           transform="rotate(90,-83661,230288.5)"
           style="stroke:#ff0000" /><g
           id="g109"
           transform="rotate(90,26957.5,78649)"
           style="stroke:#ff0000" /><g
           id="g113"
           transform="rotate(90,23294.5,74194)"
           style="stroke:#ff0000" /><g
           id="g117"
           transform="rotate(90,20994,69078.5)"
           style="stroke:#ff0000" /><g
           id="g121"
           transform="rotate(90,20863.5,69566)"
           style="stroke:#ff0000" /><g
           id="g125"
           transform="rotate(90,18487.5,74423)"
           style="stroke:#ff0000" /><g
           id="g129"
           transform="rotate(90,14982,78659.5)"
           style="stroke:#ff0000" /><g
           id="g135"
           transform="rotate(90,61180.5,112872)"
           style="stroke:#ff0000" /><g
           id="g139"
           transform="rotate(90,65636,116535.5)"
           style="stroke:#ff0000" /><g
           id="g143"
           transform="rotate(90,70751,118835.5)"
           style="stroke:#ff0000" /><g
           id="g147"
           transform="rotate(90,70264,118966.5)"
           style="stroke:#ff0000" /><g
           id="g151"
           transform="rotate(90,65407,121342.5)"
           style="stroke:#ff0000" /><g
           id="g155"
           transform="rotate(90,61170.5,124848)"
           style="stroke:#ff0000" /><g
           id="g159"
           transform="rotate(90,-60743.5,234796)"
           style="stroke:#ff0000" /><g
           id="g163"
           transform="rotate(90,-57080,239251.5)"
           style="stroke:#ff0000" /><g
           id="g167"
           transform="rotate(90,-54780,244366.5)"
           style="stroke:#ff0000" /><g
           id="g171"
           transform="rotate(90,-54648.5,243879)"
           style="stroke:#ff0000" /><g
           id="g175"
           transform="rotate(90,-52273,239022.5)"
           style="stroke:#ff0000" /><g
           id="g179"
           transform="rotate(90,-48767.5,234786)"
           style="stroke:#ff0000"><path
             id="path181"
             style="fill:#000000;stroke:#000000;stroke-width:394;stroke-linecap:round;stroke-linejoin:round;stroke-miterlimit:10;stroke-dasharray:none;stroke-opacity:1"
             d="m 14493.37,-20346.06 c 2398.282,169.269 4758.614,695.14 7002.302,1559.808 2319.582,900.037 4403.253,2318.459 6091.151,4147.052 1579.943,1743.906 2781.102,3796.482 3527.627,6029.0943 677.216,2010.0354 1092.54,4098.011 1236.099,6213.8395 50.596,678.8371 79.48,1358.5227 86.465,2037.68919 L 32437,39391.25 c 0.5,846.845 -522.627,1605.936 -1314.224,1907.502 -791.598,301.567 -1687.191,82.95 -2249.833,-549.324 C 23973.339,35251.096 16958.359,32106.5 9592.75,32107 h -34442 C -39113.135,32106.5 -50676.5,43669.865 -50677,57934.25 v 32036 c 0.5,7365.972 3145.83,14381.69 8645.853,19282.52 632.849,563.81 851.466,1459.41 549.899,2251.01 -301.566,791.59 -1060.657,1314.72 -1908.002,1314.72 l -188894.78,-0.38 c -695.49,-9.44 -1389.98,-40.85 -2082.63,-94.36 -2398.69,-169.57 -4759.07,-695.22 -7003.2,-1559.31 -2320.02,-899.45 -4403.83,-2317.67 -6092.38,-4146.57 -1580.6,-1744.23 -2781.95,-3796.69 -3528.08,-6028.88 -676.78,-2009.625 -1092.31,-4097.561 -1236.03,-6213.005 -50.63,-678.461 -79.58,-1358.143 -87.65,-2037.864 V -360.13197 c 8.07,-680.72073 37.02,-1360.40343 87.64,-2038.86473 143.73,-2115.4437 559.26,-4203.3793 1236.04,-6213.0031 746.13,-2232.1942 1947.48,-4284.6542 3528.08,-6028.3792 1688.55,-1828.403 3772.36,-3246.625 6092.38,-4146.575 2244.13,-864.586 4604.51,-1390.233 7003.2,-1559.31 692.65,-53.005 1387.14,-84.421 2082.63,-93.36 l 244693.112,0.02 c 697.543,9.027 1392.029,40.509 2084.288,93.543 z"
             sodipodi:nodetypes="cccccccsccccccsccccccccccccccccc" /></g></g></g><g
       id="g183"
       style="stroke:#ff0000"><g
         id="g185"
         clip-path="url(#clipPath189)"
         style="stroke:#ff0000" /></g><g
       id="g195"
       style="stroke:#ff0000"><g
         id="g197"
         clip-path="url(#clipPath201)"
         style="stroke:#ff0000" /></g></g></svg>
