<?xml version="1.0" encoding="UTF-8" standalone="no"?>
<!-- Created with Inkscape (http://www.inkscape.org/) -->

<svg
   width="68.520119mm"
   height="143.71077mm"
   viewBox="0 0 68.520119 143.71077"
   version="1.1"
   id="svg1"
   xml:space="preserve"
   inkscape:version="1.2.2 (b0a84865, 2022-12-01)"
   sodipodi:docname="iPhone 14 svg.svg"
   xmlns:inkscape="http://www.inkscape.org/namespaces/inkscape"
   xmlns:sodipodi="http://sodipodi.sourceforge.net/DTD/sodipodi-0.dtd"
   xmlns="http://www.w3.org/2000/svg"
   xmlns:svg="http://www.w3.org/2000/svg"><sodipodi:namedview
     id="namedview1"
     pagecolor="#ffffff"
     bordercolor="#000000"
     borderopacity="0.25"
     inkscape:showpageshadow="2"
     inkscape:pageopacity="0.0"
     inkscape:pagecheckerboard="0"
     inkscape:deskcolor="#d1d1d1"
     inkscape:document-units="mm"
     inkscape:zoom="0.83547463"
     inkscape:cx="168.76635"
     inkscape:cy="250.75567"
     inkscape:window-width="1419"
     inkscape:window-height="1027"
     inkscape:window-x="0"
     inkscape:window-y="62"
     inkscape:window-maximized="0"
     inkscape:current-layer="layer-oc1"
     showgrid="false"><inkscape:page
       x="0"
       y="0"
       width="68.520111"
       height="143.71077"
       id="page1"
       margin="0"
       bleed="0" /></sodipodi:namedview><defs
     id="defs1"><clipPath
       clipPathUnits="userSpaceOnUse"
       id="clipPath4"><path
         d="M 273,0 H 2957 V 5852 H 273 V 0"
         transform="rotate(-90,-279.00001,1130.5)"
         id="path4" /></clipPath><clipPath
       clipPathUnits="userSpaceOnUse"
       id="clipPath6"><path
         d="M 273,0 H 2957 V 5852 H 273 V 0"
         transform="rotate(-90,68.49999,699.99999)"
         id="path6" /></clipPath><clipPath
       clipPathUnits="userSpaceOnUse"
       id="clipPath8"><path
         d="M 273,0 H 2957 V 5852 H 273 V 0"
         transform="rotate(-90,78.99999,669.49999)"
         id="path8" /></clipPath><clipPath
       clipPathUnits="userSpaceOnUse"
       id="clipPath10"><path
         d="M 273,0 H 2957 V 5852 H 273 V 0"
         transform="rotate(-90,222.49999,888.99999)"
         id="path10" /></clipPath><clipPath
       clipPathUnits="userSpaceOnUse"
       id="clipPath13"><path
         d="M 273,0 H 2957 V 5852 H 273 V 0"
         transform="rotate(-90,439.49999,1849)"
         id="path13" /></clipPath><clipPath
       clipPathUnits="userSpaceOnUse"
       id="clipPath15"><path
         d="M 273,0 H 2957 V 5852 H 273 V 0"
         transform="rotate(-90,869.99999,1501.5)"
         id="path15" /></clipPath><clipPath
       clipPathUnits="userSpaceOnUse"
       id="clipPath17"><path
         d="M 273,0 H 2957 V 5852 H 273 V 0"
         transform="rotate(-90,899.99999,1490.5)"
         id="path17" /></clipPath><clipPath
       clipPathUnits="userSpaceOnUse"
       id="clipPath19"><path
         d="M 273,0 H 2957 V 5852 H 273 V 0"
         transform="rotate(-90,680.49999,1347)"
         id="path19" /></clipPath><clipPath
       clipPathUnits="userSpaceOnUse"
       id="clipPath21"><path
         d="M 273,0 H 2957 V 5852 H 273 V 0"
         transform="rotate(-90,-795.00001,3083.5)"
         id="path21" /></clipPath><clipPath
       clipPathUnits="userSpaceOnUse"
       id="clipPath23"><path
         d="M 273,0 H 2957 V 5852 H 273 V 0"
         transform="rotate(-90,-1142.5,3514)"
         id="path23" /></clipPath><clipPath
       clipPathUnits="userSpaceOnUse"
       id="clipPath25"><path
         d="M 273,0 H 2957 V 5852 H 273 V 0"
         transform="rotate(-90,-1153.5,3544)"
         id="path25" /></clipPath><clipPath
       clipPathUnits="userSpaceOnUse"
       id="clipPath27"><path
         d="M 273,0 H 2957 V 5852 H 273 V 0"
         transform="rotate(-90,-1297,3324.5)"
         id="path27" /></clipPath><clipPath
       clipPathUnits="userSpaceOnUse"
       id="clipPath32"><path
         d="M 273,0 H 2957 V 5852 H 273 V 0"
         transform="rotate(-90,-1719,2511.5)"
         id="path32" /></clipPath><clipPath
       clipPathUnits="userSpaceOnUse"
       id="clipPath34"><path
         d="M 273,0 H 2957 V 5852 H 273 V 0"
         transform="rotate(-90,-1687.5,2176)"
         id="path34" /></clipPath><clipPath
       clipPathUnits="userSpaceOnUse"
       id="clipPath36"><path
         d="M 273,0 H 2957 V 5852 H 273 V 0"
         transform="rotate(-90,-1775,2603.5)"
         id="path36" /></clipPath><clipPath
       clipPathUnits="userSpaceOnUse"
       id="clipPath38"><path
         d="M 273,0 H 2957 V 5852 H 273 V 0"
         transform="rotate(-90,-1850,2998.5)"
         id="path38" /></clipPath><clipPath
       clipPathUnits="userSpaceOnUse"
       id="clipPath40"><path
         d="M 273,0 H 2957 V 5852 H 273 V 0"
         transform="rotate(-90,-1515.5,2725)"
         id="path40" /></clipPath><clipPath
       clipPathUnits="userSpaceOnUse"
       id="clipPath42"><path
         d="M 273,0 H 2957 V 5852 H 273 V 0"
         transform="rotate(-90,-1506.5,2722)"
         id="path42" /></clipPath><clipPath
       clipPathUnits="userSpaceOnUse"
       id="clipPath44"><path
         d="M 273,0 H 2957 V 5852 H 273 V 0"
         transform="rotate(-90,-1631.5,2641)"
         id="path44" /></clipPath><clipPath
       clipPathUnits="userSpaceOnUse"
       id="clipPath46"><path
         d="M 273,0 H 2957 V 5852 H 273 V 0"
         transform="rotate(-90,-1868,2733.5)"
         id="path46" /></clipPath><clipPath
       clipPathUnits="userSpaceOnUse"
       id="clipPath48"><path
         d="M 273,0 H 2957 V 5852 H 273 V 0"
         transform="rotate(-90,-1721,2928.5)"
         id="path48" /></clipPath><clipPath
       clipPathUnits="userSpaceOnUse"
       id="clipPath50"><path
         d="M 273,0 H 2957 V 5852 H 273 V 0"
         transform="rotate(-90,-1719.5,2933)"
         id="path50" /></clipPath><clipPath
       clipPathUnits="userSpaceOnUse"
       id="clipPath52"><path
         d="M 273,0 H 2957 V 5852 H 273 V 0"
         transform="rotate(-90,-1689,3268.5)"
         id="path52" /></clipPath></defs><g
     inkscape:label="Layer 1"
     inkscape:groupmode="layer"
     id="layer1"
     transform="translate(-43.079522,-35.268299)" /><g
     id="layer-oc1"
     inkscape:groupmode="layer"
     inkscape:label="0"
     transform="matrix(0.26458333,0,0,0.26458335,176.9205,-35.268299)"><path
       id="path51"
       clip-path="url(#clipPath52)"
       style="fill:#000000;stroke:#000000;stroke-width:19.1616;stroke-linecap:round;stroke-linejoin:round;stroke-miterlimit:10;stroke-dasharray:none;stroke-opacity:1"
       transform="matrix(0,-0.11509934,-0.11488802,0,-538.03895,138.58774)"
       d="m -364.70035,-78.975066 c 39.04497,-0.915254 78.26885,1.556796 117.63659,6.810986 67.18658,9.11177 130.95268,33.23271 186.973115,70.614155 C -46.89078,7.45203 -34.09787,17.01712 -22.307905,27.24693 -12.18825,36.07887 2.54859,37.99662 15.03499,32.15897 27.52138,26.32132 35.5,13.78362 35.5,0.24996875 L 35.9408,-724.87045 c -0.043,-33.5319 -2.0081,-66.65532 -5.23823,-99.63454 -5.19201,-55.16856 -24.26412,-108.12717 -55.39056,-153.82122 -43.29898,-60.54559 -108.35662,-102.26029 -181.55349,-116.20139 -40.90481,-8.2952 -82.58093,-12.6099 -124.82133,-12.4615 l -3965.34279,-3e-4 c -41.7088,-0.1526 -83.3853,4.1581 -124.3083,12.4531 -73.2156,13.9377 -138.2773,55.6461 -181.5812,116.18557 -31.1299,45.68909 -50.2071,98.64587 -55.4004,153.77669 -3.2294,32.94166 -5.1976,66.0649 -5.7445,99.6502 V 744.42385 c 0.5469,33.08533 2.5151,66.20857 5.7445,99.15021 5.1933,55.1308 24.2705,108.08758 55.4004,154.27667 43.3039,61.03947 108.3656,102.74787 181.5812,116.68557 40.923,8.295 82.5995,12.6057 124.3083,12.953 l 3202.1556,-0.4894 c 14.0022,-0.5 26.5173,-8.4427 32.3721,-20.8864 5.8548,-12.4437 3.9959,-27.1494 -4.6247,-38.0033 -36.663,-44.7358 -64.3702,-96.01524 -81.3888,-151.33373 -15.135,-52.17583 -23.0734,-106.0298 -23.5956,-159.74309 l 0.1937,-355.10298 c 0.9277,-26.40233 2.5908,-52.20022 4.6429,-77.70181 8.3734,-87.96393 42.9927,-171.57641 98.9441,-240.23303 56.7636,-68.74574 133.17438,-118.5869 219.62738,-142.86551 51.54414,-13.14018 103.88144,-20.062 156.02867,-20.113296 z"
       sodipodi:nodetypes="ccccscccccccccccccccccsccccccccc" /></g></svg>
