<?xml version="1.0" encoding="UTF-8" standalone="no"?>
<!-- Created with Inkscape (http://www.inkscape.org/) -->

<svg
   width="67.848984mm"
   height="143.8605mm"
   viewBox="0 0 67.848983 143.86051"
   version="1.1"
   id="svg5"
   xml:space="preserve"
   inkscape:version="1.2.2 (b0a84865, 2022-12-01)"
   sodipodi:docname="iPhone 14 Pro corte.svg"
   xmlns:inkscape="http://www.inkscape.org/namespaces/inkscape"
   xmlns:sodipodi="http://sodipodi.sourceforge.net/DTD/sodipodi-0.dtd"
   xmlns="http://www.w3.org/2000/svg"
   xmlns:svg="http://www.w3.org/2000/svg"><sodipodi:namedview
     id="namedview7"
     pagecolor="#ffffff"
     bordercolor="#000000"
     borderopacity="0.25"
     inkscape:showpageshadow="2"
     inkscape:pageopacity="0.0"
     inkscape:pagecheckerboard="0"
     inkscape:deskcolor="#d1d1d1"
     inkscape:document-units="mm"
     showgrid="false"
     inkscape:zoom="0.77258331"
     inkscape:cx="115.84511"
     inkscape:cy="220.68817"
     inkscape:window-width="1390"
     inkscape:window-height="1027"
     inkscape:window-x="0"
     inkscape:window-y="62"
     inkscape:window-maximized="0"
     inkscape:current-layer="svg5" /><defs
     id="defs2"><clipPath
       clipPathUnits="userSpaceOnUse"
       id="clipPath1117"><path
         d="M 273,0 H 3083 V 5852 H 273 V 0"
         id="path1115" /></clipPath><clipPath
       clipPathUnits="userSpaceOnUse"
       id="clipPath1233"><path
         d="M 273,0 H 3083 V 5852 H 273 V 0"
         id="path1231" /></clipPath><clipPath
       clipPathUnits="userSpaceOnUse"
       id="clipPath1245"><path
         d="M 273,0 H 3083 V 5852 H 273 V 0"
         id="path1243" /></clipPath></defs><g
     inkscape:label="Layer 1"
     inkscape:groupmode="layer"
     id="layer1"
     transform="translate(-249.65648,-71.769254)" /><g
     id="g1109"
     transform="matrix(0.03051723,0,0,-0.03063941,-17.268161,150.32081)"
     style="stroke:#ff0000;stroke-width:16.3009;stroke-dasharray:none"><g
       id="g1111"
       style="stroke:#ff0000;stroke-width:16.3009;stroke-dasharray:none"><g
         id="g1113"
         clip-path="url(#clipPath1117)"
         style="stroke:#ff0000;stroke-width:16.3009;stroke-dasharray:none"><g
           id="g1125"
           transform="rotate(90,-147.5,1144)"
           style="stroke:#ff0000;stroke-width:16.3009;stroke-dasharray:none" /><g
           id="g1129"
           transform="rotate(90,173,738.5)"
           style="stroke:#ff0000;stroke-width:16.3009;stroke-dasharray:none" /><g
           id="g1133"
           transform="rotate(90,180.5,731)"
           style="stroke:#ff0000;stroke-width:16.3009;stroke-dasharray:none" /><g
           id="g1137"
           transform="rotate(90,449.5,1089)"
           style="stroke:#ff0000;stroke-width:16.3009;stroke-dasharray:none" /><g
           id="g1143"
           transform="rotate(90,534,1825.5)"
           style="stroke:#ff0000;stroke-width:16.3009;stroke-dasharray:none" /><g
           id="g1147"
           transform="rotate(90,939.5,1505)"
           style="stroke:#ff0000;stroke-width:16.3009;stroke-dasharray:none" /><g
           id="g1151"
           transform="rotate(90,947,1497.5)"
           style="stroke:#ff0000;stroke-width:16.3009;stroke-dasharray:none" /><g
           id="g1155"
           transform="rotate(90,589,1228.5)"
           style="stroke:#ff0000;stroke-width:16.3009;stroke-dasharray:none" /><g
           id="g1159"
           transform="rotate(90,-733,3092.5)"
           style="stroke:#ff0000;stroke-width:16.3009;stroke-dasharray:none" /><g
           id="g1163"
           transform="rotate(90,-1053.5,3498)"
           style="stroke:#ff0000;stroke-width:16.3009;stroke-dasharray:none" /><g
           id="g1167"
           transform="rotate(90,-1061,3505.5)"
           style="stroke:#ff0000;stroke-width:16.3009;stroke-dasharray:none" /><g
           id="g1171"
           transform="rotate(90,-1330,3147.5)"
           style="stroke:#ff0000;stroke-width:16.3009;stroke-dasharray:none" /><g
           id="g1179"
           transform="rotate(90,-1444.5,2419)"
           style="stroke:#ff0000;stroke-width:16.3009;stroke-dasharray:none" /><g
           id="g1183"
           transform="rotate(90,-1450.5,2059)"
           style="stroke:#ff0000;stroke-width:16.3009;stroke-dasharray:none" /><g
           id="g1187"
           transform="rotate(90,-1452,2442.5)"
           style="stroke:#ff0000;stroke-width:16.3009;stroke-dasharray:none" /><g
           id="g1191"
           transform="rotate(90,-1585,2617.5)"
           style="stroke:#ff0000;stroke-width:16.3009;stroke-dasharray:none" /><g
           id="g1195"
           transform="rotate(90,-1595.5,3087)"
           style="stroke:#ff0000;stroke-width:16.3009;stroke-dasharray:none" /><g
           id="g1199"
           transform="rotate(90,-1185,2725.5)"
           style="stroke:#ff0000;stroke-width:16.3009;stroke-dasharray:none" /><g
           id="g1203"
           transform="rotate(90,-1133.5,2713)"
           style="stroke:#ff0000;stroke-width:16.3009;stroke-dasharray:none" /><g
           id="g1207"
           transform="rotate(90,-1445,2504.5)"
           style="stroke:#ff0000;stroke-width:16.3009;stroke-dasharray:none" /><g
           id="g1211"
           transform="rotate(90,-1465.5,3049)"
           style="stroke:#ff0000;stroke-width:16.3009;stroke-dasharray:none" /><g
           id="g1215"
           transform="rotate(90,-1474.5,3389)"
           style="stroke:#ff0000;stroke-width:16.3009;stroke-dasharray:none" /><g
           id="g1219"
           transform="rotate(90,-1491.5,2991)"
           style="stroke:#ff0000;stroke-width:16.3009;stroke-dasharray:none" /><g
           id="g1223"
           transform="rotate(90,-1752,2646.5)"
           style="stroke:#ff0000;stroke-width:16.3009;stroke-dasharray:none"><path
             id="path1225"
             style="fill:#000000;stroke:#000000;stroke-width:16.3009;stroke-linecap:round;stroke-linejoin:round;stroke-miterlimit:10;stroke-dasharray:none;stroke-opacity:1"
             d="m -3891.3525,310.50571 c -74.5833,-9.75803 -143.4582,-44.70862 -195.5887,-99.17737 -50.7845,-56.56955 -81.2061,-128.15289 -86.8054,-203.69963 -3.6296,-34.00333 -5.496,-68.15044 -5.7409,-102.228465 V -1472.4003 c 0.2449,-34.0782 2.1113,-68.2253 5.7409,-102.2286 5.5993,-75.5468 36.0209,-147.1301 86.8054,-203.6997 52.1305,-54.4687 121.0054,-89.4193 195.5887,-99.1773 41.5858,-5.6224 83.3805,-8.659 124.5461,-8.9811 l 3853.15897,4e-4 c 41.71181,0.3266 83.50616,3.3672 125.06137,8.9893 74.5523,9.7609 143.42387,44.7181 195.54909,99.1926 50.77913,56.5751 81.19386,128.1614 86.78998,203.7434 3.63039,34.0383 5.49349,68.1856 5.23489,102.2123 L 498.5,-1019.75 c 0,13.4627 -8.35721,25.79091 -21.09518,30.86865 -12.73797,5.07773 -27.28441,1.87964 -36.65654,-8.00705 -33.84615,-35.7132 -73.43218,-65.6438 -117.21137,-88.3711 -53.55603,-26.5044 -111.07263,-44.0453 -170.2437,-51.8509 -43.17538,-5.9261 -86.69584,-9.2854 -130.547395,-10.2745 l -476.350705,-0.1095 c -63.13848,0.3079 -125.9967,6.6754 -187.82976,18.4623 -118.36038,23.253 -222.32505,93.262 -288.9925,194.03509 -52.76398,80.72699 -82.37915,174.24094 -85.04625,270.72665 -0.2827,19.31372 -0.8473,38.42667 -1.5084,57.65774 l -0.5089,474.11921 c 0.2731,39.32398 3.3593,78.5717 9.3316,117.34966 8.42219,51.92569 24.76008,102.34503 48.21439,149.74364 23.63657,47.73672 55.32343,90.76684 93.84939,127.51289 10.20535,9.31996 13.26815,23.81147 8.14632,36.46043 C -863.07083,311.22216 -875.35342,319.5 -889.25,320 l -2877.5564,-0.0131 c -41.1656,-0.82215 -82.9603,-3.85877 -124.5461,-9.48117 z"
             sodipodi:nodetypes="cccccccccccccccscccccccccccccsccc" /></g></g></g><g
       id="g1227"
       style="stroke:#ff0000;stroke-width:16.3009;stroke-dasharray:none"><g
         id="g1229"
         clip-path="url(#clipPath1233)"
         style="stroke:#ff0000;stroke-width:16.3009;stroke-dasharray:none" /></g><g
       id="g1239"
       style="stroke:#ff0000;stroke-width:16.3009;stroke-dasharray:none"><g
         id="g1241"
         clip-path="url(#clipPath1245)"
         style="stroke:#ff0000;stroke-width:16.3009;stroke-dasharray:none" /></g></g></svg>
