<?xml version="1.0" encoding="UTF-8" standalone="no"?>
<!-- Created with Inkscape (http://www.inkscape.org/) -->

<svg
   width="74.359726mm"
   height="157.51608mm"
   viewBox="0 0 74.359726 157.51608"
   version="1.1"
   id="svg1"
   xml:space="preserve"
   inkscape:version="1.2.2 (b0a84865, 2022-12-01)"
   sodipodi:docname="iPhone 14 Pro Max_svg.svg"
   xmlns:inkscape="http://www.inkscape.org/namespaces/inkscape"
   xmlns:sodipodi="http://sodipodi.sourceforge.net/DTD/sodipodi-0.dtd"
   xmlns="http://www.w3.org/2000/svg"
   xmlns:svg="http://www.w3.org/2000/svg"><sodipodi:namedview
     id="namedview1"
     pagecolor="#ffffff"
     bordercolor="#000000"
     borderopacity="0.25"
     inkscape:showpageshadow="2"
     inkscape:pageopacity="0.0"
     inkscape:pagecheckerboard="0"
     inkscape:deskcolor="#d1d1d1"
     inkscape:document-units="mm"
     inkscape:zoom="0.64132976"
     inkscape:cx="31.185205"
     inkscape:cy="273.65017"
     inkscape:window-width="1419"
     inkscape:window-height="1027"
     inkscape:window-x="0"
     inkscape:window-y="62"
     inkscape:window-maximized="0"
     inkscape:current-layer="layer-oc1"
     showgrid="false"><inkscape:page
       x="0"
       y="0"
       width="74.359726"
       height="157.51608"
       id="page2"
       margin="0"
       bleed="0" /></sodipodi:namedview><defs
     id="defs1"><clipPath
       clipPathUnits="userSpaceOnUse"
       id="clipPath5"><path
         d="M 273,0 H 3765 V 5852 H 273 V 0"
         transform="rotate(-90,84.99999,1225.5)"
         id="path5" /></clipPath><clipPath
       clipPathUnits="userSpaceOnUse"
       id="clipPath7"><path
         d="M 273,0 H 3765 V 5852 H 273 V 0"
         transform="rotate(-90,359.99999,876.49999)"
         id="path7" /></clipPath><clipPath
       clipPathUnits="userSpaceOnUse"
       id="clipPath9"><path
         d="M 273,0 H 3765 V 5852 H 273 V 0"
         transform="rotate(-90,373.49999,839.99999)"
         id="path9" /></clipPath><clipPath
       clipPathUnits="userSpaceOnUse"
       id="clipPath11"><path
         d="M 273,0 H 3765 V 5852 H 273 V 0"
         transform="rotate(-90,440.49999,958.99999)"
         id="path11" /></clipPath><clipPath
       clipPathUnits="userSpaceOnUse"
       id="clipPath13"><path
         d="M 273,0 H 3765 V 5852 H 273 V 0"
         transform="rotate(-90,882.99999,1462.5)"
         id="path13" /></clipPath><clipPath
       clipPathUnits="userSpaceOnUse"
       id="clipPath16"><path
         d="M 273,0 H 3765 V 5852 H 273 V 0"
         transform="rotate(-90,842.49999,1983)"
         id="path16" /></clipPath><clipPath
       clipPathUnits="userSpaceOnUse"
       id="clipPath18"><path
         d="M 273,0 H 3765 V 5852 H 273 V 0"
         transform="rotate(-90,1191,1707.5)"
         id="path18" /></clipPath><clipPath
       clipPathUnits="userSpaceOnUse"
       id="clipPath20"><path
         d="M 273,0 H 3765 V 5852 H 273 V 0"
         transform="rotate(-90,1228,1694.5)"
         id="path20" /></clipPath><clipPath
       clipPathUnits="userSpaceOnUse"
       id="clipPath22"><path
         d="M 273,0 H 3765 V 5852 H 273 V 0"
         transform="rotate(-90,1109,1627.5)"
         id="path22" /></clipPath><clipPath
       clipPathUnits="userSpaceOnUse"
       id="clipPath24"><path
         d="M 273,0 H 3765 V 5852 H 273 V 0"
         transform="rotate(-90,604.99999,1184.5)"
         id="path24" /></clipPath><clipPath
       clipPathUnits="userSpaceOnUse"
       id="clipPath26"><path
         d="M 273,0 H 3765 V 5852 H 273 V 0"
         transform="rotate(-90,-645.50001,3471)"
         id="path26" /></clipPath><clipPath
       clipPathUnits="userSpaceOnUse"
       id="clipPath28"><path
         d="M 273,0 H 3765 V 5852 H 273 V 0"
         transform="rotate(-90,-921.00001,3819.5)"
         id="path28" /></clipPath><clipPath
       clipPathUnits="userSpaceOnUse"
       id="clipPath30"><path
         d="M 273,0 H 3765 V 5852 H 273 V 0"
         transform="rotate(-90,-934.00001,3856.5)"
         id="path30" /></clipPath><clipPath
       clipPathUnits="userSpaceOnUse"
       id="clipPath32"><path
         d="M 273,0 H 3765 V 5852 H 273 V 0"
         transform="rotate(-90,-1001,3737.5)"
         id="path32" /></clipPath><clipPath
       clipPathUnits="userSpaceOnUse"
       id="clipPath34"><path
         d="M 273,0 H 3765 V 5852 H 273 V 0"
         transform="rotate(-90,-1444,3233.5)"
         id="path34" /></clipPath><clipPath
       clipPathUnits="userSpaceOnUse"
       id="clipPath38"><path
         d="M 273,0 H 3765 V 5852 H 273 V 0"
         transform="rotate(-90,-1394.5,2670)"
         id="path38" /></clipPath><clipPath
       clipPathUnits="userSpaceOnUse"
       id="clipPath40"><path
         d="M 273,0 H 3765 V 5852 H 273 V 0"
         transform="rotate(-90,-1409,2345.5)"
         id="path40" /></clipPath><clipPath
       clipPathUnits="userSpaceOnUse"
       id="clipPath42"><path
         d="M 273,0 H 3765 V 5852 H 273 V 0"
         transform="rotate(-90,-1416,2731.5)"
         id="path42" /></clipPath><clipPath
       clipPathUnits="userSpaceOnUse"
       id="clipPath44"><path
         d="M 273,0 H 3765 V 5852 H 273 V 0"
         transform="rotate(-90,-1630,3017.5)"
         id="path44" /></clipPath><clipPath
       clipPathUnits="userSpaceOnUse"
       id="clipPath46"><path
         d="M 273,0 H 3765 V 5852 H 273 V 0"
         transform="rotate(-90,-1581.5,3346)"
         id="path46" /></clipPath><clipPath
       clipPathUnits="userSpaceOnUse"
       id="clipPath48"><path
         d="M 273,0 H 3765 V 5852 H 273 V 0"
         transform="rotate(-90,-1142,2993.5)"
         id="path48" /></clipPath><clipPath
       clipPathUnits="userSpaceOnUse"
       id="clipPath50"><path
         d="M 273,0 H 3765 V 5852 H 273 V 0"
         transform="rotate(-90,-1096.5,2978)"
         id="path50" /></clipPath><clipPath
       clipPathUnits="userSpaceOnUse"
       id="clipPath52"><path
         d="M 273,0 H 3765 V 5852 H 273 V 0"
         transform="rotate(-90,-1278.5,2872)"
         id="path52" /></clipPath><clipPath
       clipPathUnits="userSpaceOnUse"
       id="clipPath54"><path
         d="M 273,0 H 3765 V 5852 H 273 V 0"
         transform="rotate(-90,-1417.5,3300)"
         id="path54" /></clipPath><clipPath
       clipPathUnits="userSpaceOnUse"
       id="clipPath56"><path
         d="M 273,0 H 3765 V 5852 H 273 V 0"
         transform="rotate(-90,-1434,3632.5)"
         id="path56" /></clipPath><clipPath
       clipPathUnits="userSpaceOnUse"
       id="clipPath58"><path
         d="M 273,0 H 3765 V 5852 H 273 V 0"
         transform="rotate(-90,-1440,3244.5)"
         id="path58" /></clipPath><clipPath
       clipPathUnits="userSpaceOnUse"
       id="clipPath60"><path
         d="M 273,0 H 3765 V 5852 H 273 V 0"
         transform="rotate(-90,-1681.5,2935)"
         id="path60" /></clipPath></defs><g
     inkscape:label="Layer 1"
     inkscape:groupmode="layer"
     id="layer1"
     transform="translate(-72.421687,-94.329646)" /><g
     id="layer-oc1"
     inkscape:groupmode="layer"
     inkscape:label="0"
     transform="matrix(0.26458333,0,0,0.26458335,147.57833,-94.329646)"><path
       id="path59"
       clip-path="url(#clipPath60)"
       style="fill:#000000;fill-opacity:1;stroke:#000000;stroke-width:15.7599;stroke-linecap:round;stroke-linejoin:round;stroke-miterlimit:10;stroke-dasharray:none;stroke-opacity:1"
       transform="matrix(0,-0.1200091,-0.11980964,0,-514.71919,415.61155)"
       d="m -4119.9599,348.0616 c -34.9866,-1.59675 -69.819,-6.88489 -104.1359,-15.85691 -74.068,-18.82138 -137.9687,-64.78526 -178.84,-128.62497 -28.1633,-46.18744 -45.7183,-98.39301 -51.2884,-152.66563 -4.0735,-33.8712 -6.0414,-67.76096 -6.2659,-101.049305 l -1e-4,-1527.729785 c 0.2246,-34.2884 2.1925,-68.1782 6.266,-101.5494 5.5701,-53.7726 23.1251,-105.9781 51.2884,-152.6656 40.8713,-64.3397 104.772,-110.3036 178.84,-129.125 34.3169,-8.972 69.1493,-14.2601 104.1359,-15.3569 21.9807,-0.8188 44.0991,-1.5846 65.843,-1.8898 l 4131.802885,10e-4 c 22.313115,0.3082 44.431365,1.0762 66.366625,1.8942 34.9411,1.0971 69.77303,6.3886 104.08011,15.3613 74.05733,18.8258 137.95358,64.7958 178.81982,129.1418 28.15998,46.6926 45.71,98.8999 51.2785,152.7029 4.07377,33.4015 6.03843,67.2915 5.75941,101.5327 l 0.01,633.06779 c 0.5,14.01276 -8.27658,26.80517 -21.58362,31.93826 -13.30704,5.1331 -28.40092,1.54854 -37.97114,-9.15609 -33.92928,-37.58792 -74.1129,-68.8608 -118.60163,-92.81036 -56.08868,-29.0932 -117.10239,-47.4738 -180.06605,-54.4304 -33.98286,-3.9114 -67.98481,-6.2786 -102.159585,-6.6606 l -496.969085,-0.1132 c -66.11078,0.1656 -131.97998,9.7525 -195.32066,28.5667 -89.28741,27.581 -167.89244,82.65957 -224.42588,157.54062 -52.50913,73.31221 -83.94443,159.3178 -91.72523,248.79284 -3.96812,37.83187 -6.11522,76.00815 -6.62882,114.40282 l 0.4855,404.30539 c 1.0214,42.5101 4.1467,84.82278 9.83569,126.903715 8.62993,66.867115 30.29176,131.305975 63.7117,189.638765 21.36,35.99259 47.95803,68.75309 78.81631,97.22659 10.39109,9.75627 13.9153,24.82721 8.7621,38.09537 -5.1532,13.26816 -17.92585,22.00959 -32.4096,22.00958 l -3191.8669,-0.5485 c -21.7439,-0.80529 -43.8623,-1.57109 -65.843,-2.88989 z"
       sodipodi:nodetypes="ccccccccccccccccccscccccccccccccsccc" /></g></svg>
