<?xml version="1.0" encoding="UTF-8" standalone="no"?>
<!-- Created with Inkscape (http://www.inkscape.org/) -->

<svg
   width="74.209663mm"
   height="157.34976mm"
   viewBox="0 0 74.209663 157.34976"
   version="1.1"
   id="svg5"
   xml:space="preserve"
   sodipodi:docname="iphone_15_plus_corte.svg"
   inkscape:version="1.2.2 (b0a84865, 2022-12-01)"
   xmlns:inkscape="http://www.inkscape.org/namespaces/inkscape"
   xmlns:sodipodi="http://sodipodi.sourceforge.net/DTD/sodipodi-0.dtd"
   xmlns="http://www.w3.org/2000/svg"
   xmlns:svg="http://www.w3.org/2000/svg"><sodipodi:namedview
     id="namedview7"
     pagecolor="#ffffff"
     bordercolor="#000000"
     borderopacity="0.25"
     inkscape:showpageshadow="2"
     inkscape:pageopacity="0.0"
     inkscape:pagecheckerboard="0"
     inkscape:deskcolor="#d1d1d1"
     inkscape:document-units="mm"
     showgrid="false"
     inkscape:zoom="0.78127806"
     inkscape:cx="-126.07547"
     inkscape:cy="211.83239"
     inkscape:window-width="1390"
     inkscape:window-height="1027"
     inkscape:window-x="0"
     inkscape:window-y="62"
     inkscape:window-maximized="0"
     inkscape:current-layer="svg5" /><defs
     id="defs2"><clipPath
       clipPathUnits="userSpaceOnUse"
       id="clipPath77"><path
         d="M 18189,0 H 234007 V 390177 H 18189 V 0"
         id="path75" /></clipPath><clipPath
       clipPathUnits="userSpaceOnUse"
       id="clipPath201"><path
         d="M 18189,0 H 234007 V 390177 H 18189 V 0"
         id="path199" /></clipPath><clipPath
       clipPathUnits="userSpaceOnUse"
       id="clipPath213"><path
         d="M 18189,0 H 234007 V 390177 H 18189 V 0"
         id="path211" /></clipPath></defs><g
     inkscape:label="Layer 1"
     inkscape:groupmode="layer"
     id="layer1"
     transform="translate(-269.08275,-79.307446)" /><g
     id="g69"
     transform="matrix(5.8145071e-4,0,0,-5.8247057e-4,-38.763574,182.69073)"
     style="stroke:#ff0000"><g
       id="g71"
       style="stroke:#ff0000"><g
         id="g73"
         clip-path="url(#clipPath77)"
         style="stroke:#ff0000"><g
           id="g83"
           transform="rotate(90,-82804.5,190155)"
           style="stroke:#ff0000" /><g
           id="g87"
           transform="rotate(90,-93433,200783.5)"
           style="stroke:#ff0000" /><g
           id="g91"
           transform="rotate(90,-93436.5,218162)"
           style="stroke:#ff0000" /><g
           id="g95"
           transform="rotate(90,-93433,179525.5)"
           style="stroke:#ff0000" /><g
           id="g99"
           transform="rotate(90,-93432,162147.5)"
           style="stroke:#ff0000" /><g
           id="g107"
           transform="rotate(90,16834.5,80834)"
           style="stroke:#ff0000" /><g
           id="g111"
           transform="rotate(90,13816,76956.5)"
           style="stroke:#ff0000" /><g
           id="g115"
           transform="rotate(90,11648,72410.5)"
           style="stroke:#ff0000" /><g
           id="g119"
           transform="rotate(90,11514.5,72329)"
           style="stroke:#ff0000" /><g
           id="g123"
           transform="rotate(90,9744,76315.5)"
           style="stroke:#ff0000" /><g
           id="g127"
           transform="rotate(90,7484,79442.5)"
           style="stroke:#ff0000" /><g
           id="g131"
           transform="rotate(90,5894,81234.5)"
           style="stroke:#ff0000" /><g
           id="g137"
           transform="rotate(90,49647.5,113647)"
           style="stroke:#ff0000" /><g
           id="g141"
           transform="rotate(90,53525.5,116666)"
           style="stroke:#ff0000" /><g
           id="g145"
           transform="rotate(90,58071.5,118834)"
           style="stroke:#ff0000" /><g
           id="g149"
           transform="rotate(90,58152.5,118967)"
           style="stroke:#ff0000" /><g
           id="g153"
           transform="rotate(90,54166,120737.5)"
           style="stroke:#ff0000" /><g
           id="g157"
           transform="rotate(90,51039,122997.5)"
           style="stroke:#ff0000" /><g
           id="g161"
           transform="rotate(90,49247,124587.5)"
           style="stroke:#ff0000" /><g
           id="g167"
           transform="rotate(90,-64930,228224.5)"
           style="stroke:#ff0000" /><g
           id="g171"
           transform="rotate(90,-61911,232102.5)"
           style="stroke:#ff0000" /><g
           id="g175"
           transform="rotate(90,-59743,236648.5)"
           style="stroke:#ff0000" /><g
           id="g179"
           transform="rotate(90,-59610.5,236730)"
           style="stroke:#ff0000" /><g
           id="g183"
           transform="rotate(90,-57839.5,232743)"
           style="stroke:#ff0000" /><g
           id="g187"
           transform="rotate(90,-55579.5,229616)"
           style="stroke:#ff0000" /><g
           id="g191"
           transform="rotate(90,-53990,227824.5)"
           style="stroke:#ff0000"><path
             id="path193"
             style="fill:#000000;stroke:#000000;stroke-width:394;stroke-linecap:round;stroke-linejoin:round;stroke-miterlimit:10;stroke-dasharray:none;stroke-opacity:1"
             d="m -218343.61,-20263.731 c -1023.13,17.327 -2044.65,85.838 -3061.7,204.61 -1591.38,182.902 -3159.43,525.873 -4681.76,1023.627 -2535.2,799.862 -4843.12,2191.457 -6733.35,4060.367 -1661.28,1680.165 -2945.39,3694.723 -3767.4,5910.5034 -587.53,1567.8341 -1000.13,3194.8326 -1230.7,4851.9948 -112.48,785.3148 -192.01,1575.3207 -238.12,2367.0686 -35.76,612.1417 -53.74,1225.75112 -54.36,1840.27709 l -0,86717.06611 c 0.62,614.026 18.6,1227.635 54.36,1839.777 46.12,791.748 125.65,1581.754 238.13,2367.069 230.57,1657.162 643.17,3284.16 1230.7,4851.995 822.01,2215.78 2106.12,4230.336 3767.4,5910.006 1890.23,1868.41 4198.15,3260 6733.35,4059.87 1522.33,497.75 3090.38,840.72 4681.76,1024.12 1017.05,119.27 2038.57,187.78 3061.71,205.61 l 192108.35,0.27 c 749.047,0 1424.126,-451.03 1710.745,-1142.8 286.619,-691.77 128.342,-1488.08 -401.713,-2017.77 C -29187.811,99548.082 -31581.5,93768.422 -31581.5,87742.25 l 0.5,-21258 C -31580.5,53933.053 -21405.947,43758.5 -8855.25,43759 h 21257 c 6028.937,-0.5 11810.578,2394.984 16072.739,6658.842 529.521,529.788 1325.94,688.324 2017.885,401.789 691.946,-286.535 1143.126,-961.705 1143.126,-1710.381 L 31636,-3.766555 c 0.441,-613.009445 -17.479,-1226.620545 -53.698,-1838.927745 -46.55,-791.9143 -126.005,-1581.928 -238.449,-2367.5118 -230.451,-1657.4423 -642.896,-3284.4804 -1229.89,-4852.6469 -821.399,-2216.136 -2105.314,-4230.816 -3766.926,-5911.143 -1890.539,-1869.094 -4198.32,-3260.91 -6733.13,-4060.901 -1521.958,-497.787 -3089.976,-840.908 -4681.003,-1023.919 -1016.707,-118.83 -2038.226,-187.44 -3063.337,-204.89 z"
             sodipodi:nodetypes="cccccccccccccccccsccccccscccccccccc" /></g></g></g><g
       id="g195"
       style="stroke:#ff0000"><g
         id="g197"
         clip-path="url(#clipPath201)"
         style="stroke:#ff0000" /></g><g
       id="g207"
       style="stroke:#ff0000"><g
         id="g209"
         clip-path="url(#clipPath213)"
         style="stroke:#ff0000" /></g></g></svg>
