<?xml version="1.0" encoding="UTF-8" standalone="no"?>
<!-- Created with Inkscape (http://www.inkscape.org/) -->

<svg
   width="67.828934mm"
   height="143.35081mm"
   viewBox="0 0 67.828934 143.35081"
   version="1.1"
   id="svg1"
   xml:space="preserve"
   inkscape:version="1.2.2 (b0a84865, 2022-12-01)"
   sodipodi:docname="iPhone 11_svg.svg"
   xmlns:inkscape="http://www.inkscape.org/namespaces/inkscape"
   xmlns:sodipodi="http://sodipodi.sourceforge.net/DTD/sodipodi-0.dtd"
   xmlns="http://www.w3.org/2000/svg"
   xmlns:svg="http://www.w3.org/2000/svg"><sodipodi:namedview
     id="namedview1"
     pagecolor="#ffffff"
     bordercolor="#000000"
     borderopacity="0.25"
     inkscape:showpageshadow="2"
     inkscape:pageopacity="0.0"
     inkscape:pagecheckerboard="0"
     inkscape:deskcolor="#d1d1d1"
     inkscape:document-units="mm"
     inkscape:zoom="1.3194669"
     inkscape:cx="143.99754"
     inkscape:cy="192.88092"
     inkscape:window-width="1910"
     inkscape:window-height="1027"
     inkscape:window-x="0"
     inkscape:window-y="62"
     inkscape:window-maximized="0"
     inkscape:current-layer="layer-oc1"
     showgrid="false"
     showguides="true"><inkscape:page
       x="0"
       y="0"
       width="67.828934"
       height="143.35081"
       id="page1"
       margin="0"
       bleed="0" /></sodipodi:namedview><defs
     id="defs1"><clipPath
       clipPathUnits="userSpaceOnUse"
       id="clipPath2"><path
         d="M 18189,0 H 249370 V 390177 H 18189 V 0"
         transform="translate(1.3888889e-4)"
         id="path2" /></clipPath><clipPath
       clipPathUnits="userSpaceOnUse"
       id="clipPath4"><path
         d="M 18189,0 H 249370 V 390177 H 18189 V 0"
         transform="translate(1.3888889e-4)"
         id="path4" /></clipPath><clipPath
       clipPathUnits="userSpaceOnUse"
       id="clipPath6"><path
         d="M 18189,0 H 249370 V 390177 H 18189 V 0"
         transform="translate(1.3888889e-4)"
         id="path6" /></clipPath><clipPath
       clipPathUnits="userSpaceOnUse"
       id="clipPath8"><path
         d="M 18189,0 H 249370 V 390177 H 18189 V 0"
         transform="rotate(-90,51178.499,76224.999)"
         id="path8" /></clipPath><clipPath
       clipPathUnits="userSpaceOnUse"
       id="clipPath10"><path
         d="M 18189,0 H 249370 V 390177 H 18189 V 0"
         transform="rotate(-90,77317.999,99914.499)"
         id="path10" /></clipPath><clipPath
       clipPathUnits="userSpaceOnUse"
       id="clipPath12"><path
         d="M 18189,0 H 249370 V 390177 H 18189 V 0"
         transform="rotate(-90,85440.499,105442)"
         id="path12" /></clipPath><clipPath
       clipPathUnits="userSpaceOnUse"
       id="clipPath14"><path
         d="M 18189,0 H 249370 V 390177 H 18189 V 0"
         transform="rotate(-90,87802.499,106301)"
         id="path14" /></clipPath><clipPath
       clipPathUnits="userSpaceOnUse"
       id="clipPath16"><path
         d="M 18189,0 H 249370 V 390177 H 18189 V 0"
         transform="rotate(-90,87259.999,106391.5)"
         id="path16" /></clipPath><clipPath
       clipPathUnits="userSpaceOnUse"
       id="clipPath18"><path
         d="M 18189,0 H 249370 V 390177 H 18189 V 0"
         transform="rotate(-90,85000.499,107398)"
         id="path18" /></clipPath><clipPath
       clipPathUnits="userSpaceOnUse"
       id="clipPath20"><path
         d="M 18189,0 H 249370 V 390177 H 18189 V 0"
         transform="rotate(-90,75900.999,113868.5)"
         id="path20" /></clipPath><clipPath
       clipPathUnits="userSpaceOnUse"
       id="clipPath22"><path
         d="M 18189,0 H 249370 V 390177 H 18189 V 0"
         transform="rotate(-90,52938.499,134657)"
         id="path22" /></clipPath><clipPath
       clipPathUnits="userSpaceOnUse"
       id="clipPath24"><path
         d="M 18189,0 H 249370 V 390177 H 18189 V 0"
         transform="rotate(-90,-82453.001,209856.5)"
         id="path24" /></clipPath><clipPath
       clipPathUnits="userSpaceOnUse"
       id="clipPath26"><path
         d="M 18189,0 H 249370 V 390177 H 18189 V 0"
         transform="rotate(-90,-58763.001,235995.5)"
         id="path26" /></clipPath><clipPath
       clipPathUnits="userSpaceOnUse"
       id="clipPath28"><path
         d="M 18189,0 H 249370 V 390177 H 18189 V 0"
         transform="rotate(-90,-53235.501,244118)"
         id="path28" /></clipPath><clipPath
       clipPathUnits="userSpaceOnUse"
       id="clipPath30"><path
         d="M 18189,0 H 249370 V 390177 H 18189 V 0"
         transform="rotate(-90,-52377.001,246480.5)"
         id="path30" /></clipPath><clipPath
       clipPathUnits="userSpaceOnUse"
       id="clipPath32"><path
         d="M 18189,0 H 249370 V 390177 H 18189 V 0"
         transform="rotate(-90,-52286.001,245937.5)"
         id="path32" /></clipPath><clipPath
       clipPathUnits="userSpaceOnUse"
       id="clipPath34"><path
         d="M 18189,0 H 249370 V 390177 H 18189 V 0"
         transform="rotate(-90,-51280.001,243678.5)"
         id="path34" /></clipPath><clipPath
       clipPathUnits="userSpaceOnUse"
       id="clipPath36"><path
         d="M 18189,0 H 249370 V 390177 H 18189 V 0"
         transform="rotate(-90,-44809.001,234578.5)"
         id="path36" /></clipPath><clipPath
       clipPathUnits="userSpaceOnUse"
       id="clipPath38"><path
         d="M 18189,0 H 249370 V 390177 H 18189 V 0"
         transform="rotate(-90,-24020.501,211616)"
         id="path38" /></clipPath><clipPath
       clipPathUnits="userSpaceOnUse"
       id="clipPath40"><path
         d="M 18189,0 H 249370 V 390177 H 18189 V 0"
         transform="translate(1.3888889e-4)"
         id="path40" /></clipPath><clipPath
       clipPathUnits="userSpaceOnUse"
       id="clipPath42"><path
         d="M 18189,0 H 249370 V 390177 H 18189 V 0"
         transform="rotate(-90,59835.499,84881.999)"
         id="path42" /></clipPath><clipPath
       clipPathUnits="userSpaceOnUse"
       id="clipPath44"><path
         d="M 18189,0 H 249370 V 390177 H 18189 V 0"
         transform="rotate(-90,36145.999,58742.499)"
         id="path44" /></clipPath><clipPath
       clipPathUnits="userSpaceOnUse"
       id="clipPath46"><path
         d="M 18189,0 H 249370 V 390177 H 18189 V 0"
         transform="rotate(-90,30618.499,50619.999)"
         id="path46" /></clipPath><clipPath
       clipPathUnits="userSpaceOnUse"
       id="clipPath48"><path
         d="M 18189,0 H 249370 V 390177 H 18189 V 0"
         transform="rotate(-90,29759.499,48257.999)"
         id="path48" /></clipPath><clipPath
       clipPathUnits="userSpaceOnUse"
       id="clipPath50"><path
         d="M 18189,0 H 249370 V 390177 H 18189 V 0"
         transform="rotate(-90,29668.999,48800.499)"
         id="path50" /></clipPath><clipPath
       clipPathUnits="userSpaceOnUse"
       id="clipPath52"><path
         d="M 18189,0 H 249370 V 390177 H 18189 V 0"
         transform="rotate(-90,28662.499,51059.999)"
         id="path52" /></clipPath><clipPath
       clipPathUnits="userSpaceOnUse"
       id="clipPath54"><path
         d="M 18189,0 H 249370 V 390177 H 18189 V 0"
         transform="rotate(-90,22191.999,60159.499)"
         id="path54" /></clipPath><clipPath
       clipPathUnits="userSpaceOnUse"
       id="clipPath56"><path
         d="M 18189,0 H 249370 V 390177 H 18189 V 0"
         transform="rotate(-90,1403.4993,83121.999)"
         id="path56" /></clipPath><clipPath
       clipPathUnits="userSpaceOnUse"
       id="clipPath58"><path
         d="M 18189,0 H 249370 V 390177 H 18189 V 0"
         transform="translate(1.3888889e-4)"
         id="path58" /></clipPath><clipPath
       clipPathUnits="userSpaceOnUse"
       id="clipPath60"><path
         d="M 18189,0 H 249370 V 390177 H 18189 V 0"
         transform="translate(1.3888889e-4)"
         id="path60" /></clipPath><clipPath
       clipPathUnits="userSpaceOnUse"
       id="clipPath62"><path
         d="M 18189,0 H 249370 V 390177 H 18189 V 0"
         transform="rotate(-90,-86952.501,219789)"
         id="path62" /></clipPath><clipPath
       clipPathUnits="userSpaceOnUse"
       id="clipPath64"><path
         d="M 18189,0 H 249370 V 390177 H 18189 V 0"
         transform="rotate(-90,-96957.001,198375.5)"
         id="path64" /></clipPath><clipPath
       clipPathUnits="userSpaceOnUse"
       id="clipPath66"><path
         d="M 18189,0 H 249370 V 390177 H 18189 V 0"
         transform="rotate(-90,-109883,182901.5)"
         id="path66" /></clipPath><clipPath
       clipPathUnits="userSpaceOnUse"
       id="clipPath68"><path
         d="M 18189,0 H 249370 V 390177 H 18189 V 0"
         transform="rotate(-90,-133746,157839.5)"
         id="path68" /></clipPath><clipPath
       clipPathUnits="userSpaceOnUse"
       id="clipPath70"><path
         d="M 18189,0 H 249370 V 390177 H 18189 V 0"
         transform="rotate(-90,-114504.5,155133)"
         id="path70" /></clipPath><clipPath
       clipPathUnits="userSpaceOnUse"
       id="clipPath72"><path
         d="M 18189,0 H 249370 V 390177 H 18189 V 0"
         transform="rotate(-90,-85072.501,181780)"
         id="path72" /></clipPath><clipPath
       clipPathUnits="userSpaceOnUse"
       id="clipPath74"><path
         d="M 18189,0 H 249370 V 390177 H 18189 V 0"
         transform="rotate(-90,-79985.501,184986)"
         id="path74" /></clipPath><clipPath
       clipPathUnits="userSpaceOnUse"
       id="clipPath76"><path
         d="M 18189,0 H 249370 V 390177 H 18189 V 0"
         transform="rotate(-90,-80180.001,184965.5)"
         id="path76" /></clipPath><clipPath
       clipPathUnits="userSpaceOnUse"
       id="clipPath78"><path
         d="M 18189,0 H 249370 V 390177 H 18189 V 0"
         transform="rotate(-90,-79852.501,184856)"
         id="path78" /></clipPath><clipPath
       clipPathUnits="userSpaceOnUse"
       id="clipPath80"><path
         d="M 18189,0 H 249370 V 390177 H 18189 V 0"
         transform="rotate(-90,-85414.501,188445)"
         id="path80" /></clipPath><clipPath
       clipPathUnits="userSpaceOnUse"
       id="clipPath82"><path
         d="M 18189,0 H 249370 V 390177 H 18189 V 0"
         transform="rotate(-90,-120376.5,220321)"
         id="path82" /></clipPath><clipPath
       clipPathUnits="userSpaceOnUse"
       id="clipPath84"><path
         d="M 18189,0 H 249370 V 390177 H 18189 V 0"
         transform="rotate(-90,-86227.501,154188)"
         id="path84" /></clipPath><clipPath
       clipPathUnits="userSpaceOnUse"
       id="clipPath86"><path
         d="M 18189,0 H 249370 V 390177 H 18189 V 0"
         transform="rotate(-90,-92731.001,173885.5)"
         id="path86" /></clipPath><clipPath
       clipPathUnits="userSpaceOnUse"
       id="clipPath88"><path
         d="M 18189,0 H 249370 V 390177 H 18189 V 0"
         transform="rotate(-90,-110675,195322.5)"
         id="path88" /></clipPath></defs><g
     inkscape:label="Layer 1"
     inkscape:groupmode="layer"
     id="layer1"
     transform="translate(-11.707412,-12.296494)" /><g
     id="layer-oc1"
     inkscape:groupmode="layer"
     inkscape:label="0"
     transform="matrix(0.26458333,0,0,0.26458335,208.2926,-12.296494)"><path
       id="path87"
       clip-path="url(#clipPath88)"
       style="mix-blend-mode:lighten;fill:#000000;stroke:#000000;stroke-width:1094.67;stroke-linecap:round;stroke-linejoin:round;stroke-miterlimit:10;stroke-dasharray:none;stroke-opacity:1;fill-opacity:1"
       transform="matrix(0,-0.00172762,-0.00171692,0,-747.33811,62.861125)"
       d="m -62637.239,5291.3088 c 233.272,3014.3919 1050.124,5954.5942 2405.489,8657.2302 953.709,1863.127 869.466,4087.995 -222.177,5873.581 -1091.644,1785.586 -3033.498,2874.778 -5126.958,2875.379 l -215369.845,-0.543 c -1180.02,1.325 -2478.66,-27.378 -3778.11,-86.495 -1642.68,-66.281 -3276.06,-255.51 -4887.68,-565.602 -1851.92,-359.492 -3640.58,-993.593 -5306,-1881.308 -1584.16,-869.355 -3003.64,-2009.897 -4194.18,-3370.1 -1024.24,-1181.487 -1871.57,-2504.656 -2515.47,-3927.973 -667.46,-1516.937 -1141.54,-3112.7661 -1410.54,-4749.3735 -227.94,-1369.1904 -375,-2750.2202 -440.79,-4134.8944 -63.63,-1304.7628 -94.98,-2612.3095 -93.99,-3919.371315 V -102946.84 c -0.99,-1248.06 30.36,-2555.61 93.97,-3860.37 65.78,-1384.67 212.84,-2765.7 440.78,-4134.89 269,-1636.61 743.08,-3232.44 1410.54,-4749.37 643.9,-1423.33 1491.23,-2746.49 2515.47,-3927.98 1190.54,-1360.2 2610.02,-2500.75 4194.18,-3370.1 1665.42,-887.72 3454.08,-1521.82 5306,-1881.31 1611.62,-310.09 3245,-499.32 4887.68,-565.6 1299.45,-59.12 2598.09,-87.82 3778.12,-85.99 h 267143.986 c 1298.513,-1.83 2597.154,26.87 3897.6763,86.05 1643.753,66.5 3277.1165,255.89 4888.0522,566.02 1851.223,359.54 3639.8294,993.81 5305.50885,1881.61 1584.42505,869.44 3003.78965,2010.11 4193.72515,3370.46 1023.6415,1181.62 1870.8515,2504.87 2515.181,3928.4 667.8665,1517.16 1141.7965,3113.04 1410.266,4750.41 227.4325,1369.96 374.3585,2751.01 440.122,4137.78 63.4905,1304.34 94.7095,2609.35 93.721,3854.88 l 0.012,54758.089 c 0,2681.481 -1312.3418,5193.476 -3513.5835,6725.212 -2201.2414,1531.735 -5012.73523,1889.314 -7526.1268,958.115 -2108.2183,-760.398 -4309.689,-1236.937 -6542.841,-1416.346 -1302.0091,-111.379 -2609.8517,-175 -3917.4887,-190.434 -441.714,-7.601 -884.695,-12.721 -1331.328,-15.134 l -22227.621,-0.496 c -1485.737,-4.467 -2972.344,29.885 -4459.177,102.747 -2150.917,103.148 -4282.645,437.136 -6359.862,996.537 -2572.692,736.316 -4985.776,1946.181 -7115.121,3567.567 -2342.801,1785.377 -4298.886,4027.474 -5749.835,6590.239 -1077.746,1898.153 -1857.485,3951.137 -2311.909,6086.77 -358.8,1678.73 -575.58,3384.471 -648.478,5100.423 -78.645,1748.572 -110.262,3497.884 -95.23,5247.074 l 0.177,14437.919665 c -3.42,1672.242135 70.959,3483.865435 223.685,5289.866135 z"
       sodipodi:nodetypes="ccscccccccccccccccccccccccccccccscccccccccccccc" /></g></svg>
