<?xml version="1.0" encoding="UTF-8" standalone="no"?>
<!-- Created with Inkscape (http://www.inkscape.org/) -->

<svg
   width="68.968536mm"
   height="144.22647mm"
   viewBox="0 0 68.968536 144.22647"
   version="1.1"
   id="svg1"
   xml:space="preserve"
   inkscape:version="1.2.2 (b0a84865, 2022-12-01)"
   sodipodi:docname="iPhone 13_svg.svg"
   xmlns:inkscape="http://www.inkscape.org/namespaces/inkscape"
   xmlns:sodipodi="http://sodipodi.sourceforge.net/DTD/sodipodi-0.dtd"
   xmlns="http://www.w3.org/2000/svg"
   xmlns:svg="http://www.w3.org/2000/svg"><sodipodi:namedview
     id="namedview1"
     pagecolor="#ffffff"
     bordercolor="#000000"
     borderopacity="0.25"
     inkscape:showpageshadow="2"
     inkscape:pageopacity="0.0"
     inkscape:pagecheckerboard="0"
     inkscape:deskcolor="#d1d1d1"
     inkscape:document-units="mm"
     inkscape:zoom="0.84555428"
     inkscape:cx="96.977807"
     inkscape:cy="274.96756"
     inkscape:window-width="1419"
     inkscape:window-height="1027"
     inkscape:window-x="0"
     inkscape:window-y="62"
     inkscape:window-maximized="0"
     inkscape:current-layer="layer-oc1"
     showgrid="false"><inkscape:page
       x="0"
       y="0"
       width="68.968536"
       height="144.22647"
       id="page1"
       margin="0"
       bleed="0" /></sodipodi:namedview><defs
     id="defs1"><clipPath
       clipPathUnits="userSpaceOnUse"
       id="clipPath2"><path
         d="M 18189,0 H 245715 V 390177 H 18189 V 0"
         transform="translate(1.3888889e-4)"
         id="path2" /></clipPath><clipPath
       clipPathUnits="userSpaceOnUse"
       id="clipPath4"><path
         d="M 18189,0 H 245715 V 390177 H 18189 V 0"
         transform="translate(1.3888889e-4)"
         id="path4" /></clipPath><clipPath
       clipPathUnits="userSpaceOnUse"
       id="clipPath6"><path
         d="M 18189,0 H 245715 V 390177 H 18189 V 0"
         transform="rotate(-90,-78034.001,189730.5)"
         id="path6" /></clipPath><clipPath
       clipPathUnits="userSpaceOnUse"
       id="clipPath8"><path
         d="M 18189,0 H 245715 V 390177 H 18189 V 0"
         transform="rotate(-90,-91259.501,202956)"
         id="path8" /></clipPath><clipPath
       clipPathUnits="userSpaceOnUse"
       id="clipPath10"><path
         d="M 18189,0 H 245715 V 390177 H 18189 V 0"
         transform="rotate(-90,-88269.501,225532)"
         id="path10" /></clipPath><clipPath
       clipPathUnits="userSpaceOnUse"
       id="clipPath12"><path
         d="M 18189,0 H 245715 V 390177 H 18189 V 0"
         transform="rotate(-90,-91257.001,176507.5)"
         id="path12" /></clipPath><clipPath
       clipPathUnits="userSpaceOnUse"
       id="clipPath14"><path
         d="M 18189,0 H 245715 V 390177 H 18189 V 0"
         transform="rotate(-90,-87979.001,153971.5)"
         id="path14" /></clipPath><clipPath
       clipPathUnits="userSpaceOnUse"
       id="clipPath16"><path
         d="M 18189,0 H 245715 V 390177 H 18189 V 0"
         transform="translate(1.3888889e-4)"
         id="path16" /></clipPath><clipPath
       clipPathUnits="userSpaceOnUse"
       id="clipPath18"><path
         d="M 18189,0 H 245715 V 390177 H 18189 V 0"
         transform="rotate(-90,-52330.001,244118.5)"
         id="path18" /></clipPath><clipPath
       clipPathUnits="userSpaceOnUse"
       id="clipPath20"><path
         d="M 18189,0 H 245715 V 390177 H 18189 V 0"
         transform="rotate(-90,84822.999,106965.5)"
         id="path20" /></clipPath><clipPath
       clipPathUnits="userSpaceOnUse"
       id="clipPath22"><path
         d="M 18189,0 H 245715 V 390177 H 18189 V 0"
         transform="translate(1.3888889e-4)"
         id="path22" /></clipPath><clipPath
       clipPathUnits="userSpaceOnUse"
       id="clipPath24"><path
         d="M 18189,0 H 245715 V 390177 H 18189 V 0"
         transform="translate(1.3888889e-4)"
         id="path24" /></clipPath><clipPath
       clipPathUnits="userSpaceOnUse"
       id="clipPath26"><path
         d="M 18189,0 H 245715 V 390177 H 18189 V 0"
         transform="translate(1.3888889e-4)"
         id="path26" /></clipPath><clipPath
       clipPathUnits="userSpaceOnUse"
       id="clipPath28"><path
         d="M 18189,0 H 245715 V 390177 H 18189 V 0"
         transform="rotate(-90,30601.499,52743.999)"
         id="path28" /></clipPath></defs><g
     inkscape:label="Layer 1"
     inkscape:groupmode="layer"
     id="layer1"
     transform="translate(-53.366031,-45.811698)" /><g
     id="layer-oc1"
     inkscape:groupmode="layer"
     inkscape:label="0"
     transform="matrix(0.26458333,0,0,0.26458335,166.63399,-45.811698)"><path
       id="path27"
       clip-path="url(#clipPath28)"
       style="mix-blend-mode:lighten;fill:#000000;stroke:#000000;stroke-width:1104.87;stroke-linecap:round;stroke-linejoin:round;stroke-miterlimit:10;stroke-dasharray:none;stroke-opacity:1"
       transform="matrix(0,-0.00171198,-0.00170881,0,-592.11689,680.50371)"
       d="m 289138.45,-50625.75 c 1252.21,959.151 2940.81,1124.402 4355.6,425.974 1414.79,-698.428 2310.45,-2139.431 2309.95,-3716.974 l -0.5,-54526 c 0,-11872.19 -9623.5,-21496.61 -21496.72,-21497.75 H -0.25 c -11872.492,0 -21497.25,9624.76 -21497.75,21497.75 V 0.249375 C -21497.5,11872.742 -11872.742,21497.5 -0.25,21498 l 219808,0.5 c 1568.52,0 3002.54,-884.99 3705.7,-2286.786 703.16,-1401.795 555.08,-3080.39 -382.15,-4336.885 C 219515.28,10028.308 217561.5,4142.5664 217561,-1904.7506 V -28350.751 c 0.5,-15497.636 12563.61,-28060.749 28060.75,-28060.749 h 26452.35 c 6170.68,0.592 12167.65,2034.15 17064.35,5785.75 z"
       sodipodi:nodetypes="csccccccccscccccc" /></g></svg>
