<?xml version="1.0" encoding="UTF-8" standalone="no"?>
<!-- Created with Inkscape (http://www.inkscape.org/) -->

<svg
   width="68.613594mm"
   height="143.90044mm"
   viewBox="0 0 68.613594 143.90043"
   version="1.1"
   id="svg1"
   xml:space="preserve"
   inkscape:version="1.2.2 (b0a84865, 2022-12-01)"
   sodipodi:docname="iPhone 12 pro.svg"
   xmlns:inkscape="http://www.inkscape.org/namespaces/inkscape"
   xmlns:sodipodi="http://sodipodi.sourceforge.net/DTD/sodipodi-0.dtd"
   xmlns="http://www.w3.org/2000/svg"
   xmlns:svg="http://www.w3.org/2000/svg"><sodipodi:namedview
     id="namedview1"
     pagecolor="#ffffff"
     bordercolor="#000000"
     borderopacity="0.25"
     inkscape:showpageshadow="2"
     inkscape:pageopacity="0.0"
     inkscape:pagecheckerboard="0"
     inkscape:deskcolor="#d1d1d1"
     inkscape:document-units="mm"
     inkscape:zoom="0.53331417"
     inkscape:cx="-93.753369"
     inkscape:cy="312.19872"
     inkscape:window-width="1419"
     inkscape:window-height="1027"
     inkscape:window-x="0"
     inkscape:window-y="62"
     inkscape:window-maximized="0"
     inkscape:current-layer="layer-oc1"
     showgrid="false"><inkscape:page
       x="0"
       y="0"
       width="68.613594"
       height="143.90042"
       id="page1"
       margin="0"
       bleed="0" /></sodipodi:namedview><defs
     id="defs1"><clipPath
       clipPathUnits="userSpaceOnUse"
       id="clipPath2"><path
         d="M 18189,0 H 245715 V 390177 H 18189 V 0"
         transform="translate(1.3888889e-4)"
         id="path2" /></clipPath><clipPath
       clipPathUnits="userSpaceOnUse"
       id="clipPath4"><path
         d="M 18189,0 H 245715 V 390177 H 18189 V 0"
         transform="translate(1.3888889e-4)"
         id="path4" /></clipPath><clipPath
       clipPathUnits="userSpaceOnUse"
       id="clipPath6"><path
         d="M 18189,0 H 245715 V 390177 H 18189 V 0"
         transform="translate(1.3888889e-4)"
         id="path6" /></clipPath><clipPath
       clipPathUnits="userSpaceOnUse"
       id="clipPath8"><path
         d="M 18189,0 H 245715 V 390177 H 18189 V 0"
         transform="rotate(-90,-57690.501,244003)"
         id="path8" /></clipPath><clipPath
       clipPathUnits="userSpaceOnUse"
       id="clipPath10"><path
         d="M 18189,0 H 245715 V 390177 H 18189 V 0"
         transform="rotate(-90,79351.999,106960.5)"
         id="path10" /></clipPath><clipPath
       clipPathUnits="userSpaceOnUse"
       id="clipPath12"><path
         d="M 18189,0 H 245715 V 390177 H 18189 V 0"
         transform="translate(1.3888889e-4)"
         id="path12" /></clipPath><clipPath
       clipPathUnits="userSpaceOnUse"
       id="clipPath14"><path
         d="M 18189,0 H 245715 V 390177 H 18189 V 0"
         transform="rotate(-90,25240.999,52849.499)"
         id="path14" /></clipPath><clipPath
       clipPathUnits="userSpaceOnUse"
       id="clipPath16"><path
         d="M 18189,0 H 245715 V 390177 H 18189 V 0"
         transform="translate(1.3888889e-4)"
         id="path16" /></clipPath><clipPath
       clipPathUnits="userSpaceOnUse"
       id="clipPath18"><path
         d="M 18189,0 H 245715 V 390177 H 18189 V 0"
         transform="translate(1.3888889e-4)"
         id="path18" /></clipPath><clipPath
       clipPathUnits="userSpaceOnUse"
       id="clipPath20"><path
         d="M 18189,0 H 245715 V 390177 H 18189 V 0"
         transform="rotate(-90,-67779.001,188651.5)"
         id="path20" /></clipPath><clipPath
       clipPathUnits="userSpaceOnUse"
       id="clipPath22"><path
         d="M 18189,0 H 245715 V 390177 H 18189 V 0"
         transform="rotate(-90,-88377.001,209249.5)"
         id="path22" /></clipPath><clipPath
       clipPathUnits="userSpaceOnUse"
       id="clipPath24"><path
         d="M 18189,0 H 245715 V 390177 H 18189 V 0"
         transform="rotate(-90,-86653.001,232525.5)"
         id="path24" /></clipPath><clipPath
       clipPathUnits="userSpaceOnUse"
       id="clipPath26"><path
         d="M 18189,0 H 245715 V 390177 H 18189 V 0"
         transform="rotate(-90,-87183.501,169247)"
         id="path26" /></clipPath><clipPath
       clipPathUnits="userSpaceOnUse"
       id="clipPath28"><path
         d="M 18189,0 H 245715 V 390177 H 18189 V 0"
         transform="rotate(-90,-85372.001,145977.5)"
         id="path28" /></clipPath></defs><g
     inkscape:label="Layer 1"
     inkscape:groupmode="layer"
     id="layer1"
     transform="translate(-61.156579,-46.171617)" /><g
     id="layer-oc1"
     inkscape:groupmode="layer"
     inkscape:label="0"
     transform="matrix(0.26458333,0,0,0.26458335,158.84343,-46.171617)"><path
       id="path27"
       clip-path="url(#clipPath28)"
       style="mix-blend-mode:lighten;fill:#000000;stroke:#000000;stroke-width:787.402;stroke-linecap:round;stroke-linejoin:round;stroke-miterlimit:10;stroke-dasharray:none;stroke-opacity:1"
       transform="matrix(0,-0.00170982,-0.00170355,0,-592.65614,332.40227)"
       d="M 25080.75,-89151 C 9128.53,-89151.5 -3803.5,-76219.47 -3804,-60266.751 v 38809.001 c 0.5,6886.003 2460.729,13545.696 6937.5183,18777.6925 1046.2336,1222.734 1285.1956,2942.90177 611.8884,4404.9288 C 3072.0996,3186.8984 1609.6166,4123.5 -0.25,4123.9994 h -203741 C -215675.05,4123.5 -225349.5,-5550.954 -225349.5,-17484.751 V -125706.75 c 0,-11934.3 9674.45,-21608.75 21608.25,-21608.25 H 70344.786 c 11934.521,0.64 21607.714,9674.76 21607.214,21608.25 v 40440 c 0.5,1612.228 -939.397,3076.763 -2405.314,3748.457 -1465.917,671.695 -3188.86,427.294 -4408.728,-624.753 -5241.916,-4520.349 -11934.777,-7007.79 -18859.824,-7007.954 z"
       sodipodi:nodetypes="ccccsccccccccsccc" /></g></svg>
