<?xml version="1.0" encoding="UTF-8" standalone="no"?>
<!-- Created with Inkscape (http://www.inkscape.org/) -->

<svg
   width="66.860176mm"
   height="142.86998mm"
   viewBox="0 0 66.860176 142.86998"
   version="1.1"
   id="svg1"
   xml:space="preserve"
   inkscape:version="1.2.2 (b0a84865, 2022-12-01)"
   sodipodi:docname="iPhone 15 Pro svg.svg"
   xmlns:inkscape="http://www.inkscape.org/namespaces/inkscape"
   xmlns:sodipodi="http://sodipodi.sourceforge.net/DTD/sodipodi-0.dtd"
   xmlns="http://www.w3.org/2000/svg"
   xmlns:svg="http://www.w3.org/2000/svg"><sodipodi:namedview
     id="namedview1"
     pagecolor="#ffffff"
     bordercolor="#000000"
     borderopacity="0.25"
     inkscape:showpageshadow="2"
     inkscape:pageopacity="0.0"
     inkscape:pagecheckerboard="0"
     inkscape:deskcolor="#d1d1d1"
     inkscape:document-units="mm"
     inkscape:zoom="0.56783918"
     inkscape:cx="25.535399"
     inkscape:cy="261.51771"
     inkscape:window-width="1390"
     inkscape:window-height="1027"
     inkscape:window-x="0"
     inkscape:window-y="62"
     inkscape:window-maximized="0"
     inkscape:current-layer="layer-oc1"
     showgrid="false" /><defs
     id="defs1"><clipPath
       clipPathUnits="userSpaceOnUse"
       id="clipPath4"><path
         d="M 18189,0 H 233650 V 390177 H 18189 V 0"
         transform="rotate(-90,-82635.001,175944.5)"
         id="path4" /></clipPath><clipPath
       clipPathUnits="userSpaceOnUse"
       id="clipPath6"><path
         d="M 18189,0 H 233650 V 390177 H 18189 V 0"
         transform="rotate(-90,-83332.501,155793)"
         id="path6" /></clipPath><clipPath
       clipPathUnits="userSpaceOnUse"
       id="clipPath8"><path
         d="M 18189,0 H 233650 V 390177 H 18189 V 0"
         transform="rotate(-90,-66382.001,192197.5)"
         id="path8" /></clipPath><clipPath
       clipPathUnits="userSpaceOnUse"
       id="clipPath10"><path
         d="M 18189,0 H 233650 V 390177 H 18189 V 0"
         transform="rotate(-90,-83848.001,209664.5)"
         id="path10" /></clipPath><clipPath
       clipPathUnits="userSpaceOnUse"
       id="clipPath12"><path
         d="M 18189,0 H 233650 V 390177 H 18189 V 0"
         transform="rotate(-90,-84536.001,229816.5)"
         id="path12" /></clipPath><clipPath
       clipPathUnits="userSpaceOnUse"
       id="clipPath16"><path
         d="M 18189,0 H 233650 V 390177 H 18189 V 0"
         transform="rotate(-90,15814.499,90751.999)"
         id="path16" /></clipPath><clipPath
       clipPathUnits="userSpaceOnUse"
       id="clipPath18"><path
         d="M 18189,0 H 233650 V 390177 H 18189 V 0"
         transform="rotate(-90,11151.999,84576.499)"
         id="path18" /></clipPath><clipPath
       clipPathUnits="userSpaceOnUse"
       id="clipPath20"><path
         d="M 18189,0 H 233650 V 390177 H 18189 V 0"
         transform="rotate(-90,8466.9993,78822.499)"
         id="path20" /></clipPath><clipPath
       clipPathUnits="userSpaceOnUse"
       id="clipPath22"><path
         d="M 18189,0 H 233650 V 390177 H 18189 V 0"
         transform="rotate(-90,8310.4993,79034.999)"
         id="path22" /></clipPath><clipPath
       clipPathUnits="userSpaceOnUse"
       id="clipPath24"><path
         d="M 18189,0 H 233650 V 390177 H 18189 V 0"
         transform="rotate(-90,5028.4993,85562.999)"
         id="path24" /></clipPath><clipPath
       clipPathUnits="userSpaceOnUse"
       id="clipPath26"><path
         d="M 18189,0 H 233650 V 390177 H 18189 V 0"
         transform="rotate(-90,1504.4993,90121.999)"
         id="path26" /></clipPath><clipPath
       clipPathUnits="userSpaceOnUse"
       id="clipPath28"><path
         d="M 18189,0 H 233650 V 390177 H 18189 V 0"
         transform="rotate(-90,-1025.0007,92898.499)"
         id="path28" /></clipPath><clipPath
       clipPathUnits="userSpaceOnUse"
       id="clipPath32"><path
         d="M 18189,0 H 233650 V 390177 H 18189 V 0"
         transform="rotate(-90,41186.499,116124)"
         id="path32" /></clipPath><clipPath
       clipPathUnits="userSpaceOnUse"
       id="clipPath34"><path
         d="M 18189,0 H 233650 V 390177 H 18189 V 0"
         transform="rotate(-90,47361.999,120786.5)"
         id="path34" /></clipPath><clipPath
       clipPathUnits="userSpaceOnUse"
       id="clipPath36"><path
         d="M 18189,0 H 233650 V 390177 H 18189 V 0"
         transform="rotate(-90,53115.999,123471.5)"
         id="path36" /></clipPath><clipPath
       clipPathUnits="userSpaceOnUse"
       id="clipPath38"><path
         d="M 18189,0 H 233650 V 390177 H 18189 V 0"
         transform="rotate(-90,52903.499,123628)"
         id="path38" /></clipPath><clipPath
       clipPathUnits="userSpaceOnUse"
       id="clipPath40"><path
         d="M 18189,0 H 233650 V 390177 H 18189 V 0"
         transform="rotate(-90,46375.499,126910)"
         id="path40" /></clipPath><clipPath
       clipPathUnits="userSpaceOnUse"
       id="clipPath42"><path
         d="M 18189,0 H 233650 V 390177 H 18189 V 0"
         transform="rotate(-90,41816.499,130434)"
         id="path42" /></clipPath><clipPath
       clipPathUnits="userSpaceOnUse"
       id="clipPath44"><path
         d="M 18189,0 H 233650 V 390177 H 18189 V 0"
         transform="rotate(-90,39039.999,132963.5)"
         id="path44" /></clipPath><clipPath
       clipPathUnits="userSpaceOnUse"
       id="clipPath46"><path
         d="M 18189,0 H 233650 V 390177 H 18189 V 0"
         transform="rotate(-90,-68875.501,226186)"
         id="path46" /></clipPath><clipPath
       clipPathUnits="userSpaceOnUse"
       id="clipPath48"><path
         d="M 18189,0 H 233650 V 390177 H 18189 V 0"
         transform="rotate(-90,-64213.501,232362)"
         id="path48" /></clipPath><clipPath
       clipPathUnits="userSpaceOnUse"
       id="clipPath50"><path
         d="M 18189,0 H 233650 V 390177 H 18189 V 0"
         transform="rotate(-90,-61528.501,238116)"
         id="path50" /></clipPath><clipPath
       clipPathUnits="userSpaceOnUse"
       id="clipPath52"><path
         d="M 18189,0 H 233650 V 390177 H 18189 V 0"
         transform="rotate(-90,-61372.001,237903.5)"
         id="path52" /></clipPath><clipPath
       clipPathUnits="userSpaceOnUse"
       id="clipPath54"><path
         d="M 18189,0 H 233650 V 390177 H 18189 V 0"
         transform="rotate(-90,-58090.001,231375.5)"
         id="path54" /></clipPath><clipPath
       clipPathUnits="userSpaceOnUse"
       id="clipPath56"><path
         d="M 18189,0 H 233650 V 390177 H 18189 V 0"
         transform="rotate(-90,-54566.001,226816.5)"
         id="path56" /></clipPath><clipPath
       clipPathUnits="userSpaceOnUse"
       id="clipPath58"><path
         d="M 18189,0 H 233650 V 390177 H 18189 V 0"
         transform="rotate(-90,-52036.501,224040)"
         id="path58" /></clipPath><clipPath
       clipPathUnits="userSpaceOnUse"
       id="clipPath58-9"><path
         d="M 18189,0 H 233650 V 390177 H 18189 V 0"
         transform="rotate(-90,-52036.501,224040)"
         id="path58-2" /></clipPath></defs><g
     inkscape:label="Layer 1"
     inkscape:groupmode="layer"
     id="layer1"
     transform="translate(-297.4854,-79.58988)" /><g
     id="layer-oc1"
     inkscape:groupmode="layer"
     inkscape:label="0"
     transform="matrix(0.26458333,0,0,0.26458335,-77.485392,-79.58988)"><path
       id="path57"
       clip-path="url(#clipPath58-9)"
       style="fill:#000000;stroke:#000000;stroke-width:787.402;stroke-linecap:round;stroke-linejoin:round;stroke-miterlimit:10;stroke-dasharray:none;stroke-opacity:1"
       transform="matrix(0,-0.00204954,-0.00204259,0,501.04549,384.13672)"
       d="m 40261.5,26723.25 c 0,815.16 -498.54,1547.669 -1257.096,1846.812 -758.555,299.143 -1622.886,104.093 -2179.358,-491.845 C 31807.844,22706.166 24786.648,19656.5 17435.75,19656.999 l -34933,0.501 c -14652.142,0 -26530.25,11878.108 -26530.75,26530.749 v 32506 c 0.5,7354.821 3053.824,14379.833 8431.587,19397.375 596.326,556.241 791.663,1420.684 492.614,2179.426 -299.048,758.74 -1031.652,1257.45 -1847.451,1257.95 l -164453.72,0 c -1436.89,-11.1 -2871.4,-107.45 -4295.48,-288.93 -1808.8,-220.82 -3589.09,-637.84 -5309.62,-1243.969 -2286.83,-791.619 -4366.03,-2085.609 -6085.06,-3787.212 -1845.19,-1876.484 -3214.31,-4167.681 -3992.91,-6682.042 -551.67,-1734.897 -924.57,-3521.268 -1113.38,-5331.164 -81.58,-743.526 -139.44,-1489.919 -172.9,-2237.109 -23.06,-514.97 -36.58,-1030.825 -40.69,-1547.442 l -0,-80689.85581 c 4.05,-516.47216 17.59,-1033.61489 40.69,-1549.86989 33.47,-747.1902 91.33,-1493.5828 172.91,-2237.1088 188.81,-1809.8969 561.71,-3596.2675 1113.37,-5331.1641 778.61,-2514.3614 2147.73,-4805.5584 3992.92,-6682.0424 1719.03,-1701.603 3798.23,-2995.593 6085.06,-3787.212 1720.53,-606.125 3500.82,-1023.151 5309.62,-1243.97 1424.08,-181.482 2858.59,-277.833 4295.48,-287.928 l 220657.671,0.01 c 1438.623,10.247 2873.122,106.735 4297.156,288.28 1808.766,220.922 3589.016,638.117 5309.077,1244.259 2286.351,791.692 4365.427,2085.882 6084.303,3787.667 1845.015,1876.679 3213.909,4168.007 3992.428,6682.9133 551.653,1735.4197 924.384,3521.8259 1113.063,5332.1285 81.565,743.9213 139.358,1490.3195 172.762,2237.7673 23.069,516.5116 36.557,1033.65561 40.043,1547.69812 z"
       sodipodi:nodetypes="csccccccscccccccccccccccccccccccccc" /></g></svg>
