<?xml version="1.0" encoding="UTF-8" standalone="no"?>
<!-- Created with Inkscape (http://www.inkscape.org/) -->

<svg
   width="67.449867mm"
   height="142.6824mm"
   viewBox="0 0 67.449867 142.6824"
   version="1.1"
   id="svg5"
   xml:space="preserve"
   inkscape:version="1.2.2 (b0a84865, 2022-12-01)"
   sodipodi:docname="iPhone 12_corte.svg"
   xmlns:inkscape="http://www.inkscape.org/namespaces/inkscape"
   xmlns:sodipodi="http://sodipodi.sourceforge.net/DTD/sodipodi-0.dtd"
   xmlns="http://www.w3.org/2000/svg"
   xmlns:svg="http://www.w3.org/2000/svg"><sodipodi:namedview
     id="namedview7"
     pagecolor="#ffffff"
     bordercolor="#000000"
     borderopacity="0.25"
     inkscape:showpageshadow="2"
     inkscape:pageopacity="0.0"
     inkscape:pagecheckerboard="0"
     inkscape:deskcolor="#d1d1d1"
     inkscape:document-units="mm"
     showgrid="false"
     inkscape:zoom="2.3655781"
     inkscape:cx="217.28304"
     inkscape:cy="137.5985"
     inkscape:window-width="1904"
     inkscape:window-height="1027"
     inkscape:window-x="0"
     inkscape:window-y="62"
     inkscape:window-maximized="0"
     inkscape:current-layer="svg5" /><defs
     id="defs2"><clipPath
       clipPathUnits="userSpaceOnUse"
       id="clipPath1117"><path
         d="M 18189,0 H 252785 V 390177 H 18189 V 0"
         id="path1115" /></clipPath><clipPath
       clipPathUnits="userSpaceOnUse"
       id="clipPath1125"><path
         d="M 18189,0 H 252785 V 390177 H 18189 V 0"
         id="path1123" /></clipPath><clipPath
       clipPathUnits="userSpaceOnUse"
       id="clipPath1137"><path
         d="M 18189,0 H 252785 V 390177 H 18189 V 0"
         id="path1135" /></clipPath></defs><g
     inkscape:label="Layer 1"
     inkscape:groupmode="layer"
     id="layer1"
     transform="translate(-57.255071,-54.670948)" /><g
     id="g1109"
     transform="matrix(4.7058178e-4,0,0,-4.7233878e-4,-22.281592,145.2497)"
     style="stroke:#ff0000;stroke-width:787.402;stroke-dasharray:none"><g
       id="g1111"
       style="stroke:#ff0000;stroke-width:787.402;stroke-dasharray:none"><g
         id="g1113"
         clip-path="url(#clipPath1117)"
         style="stroke:#ff0000;stroke-width:787.402;stroke-dasharray:none" /></g><g
       id="g1119"
       style="stroke:#ff0000;stroke-width:787.402;stroke-dasharray:none"><g
         id="g1121"
         clip-path="url(#clipPath1125)"
         style="stroke:#ff0000;stroke-width:787.402;stroke-dasharray:none" /></g><g
       id="g1131"
       style="stroke:#ff0000;stroke-width:787.402;stroke-dasharray:none"><g
         id="g1133"
         clip-path="url(#clipPath1137)"
         style="stroke:#ff0000;stroke-width:787.402;stroke-dasharray:none"><g
           id="g1153"
           transform="rotate(90,-94292,192046.5)"
           style="stroke:#ff0000;stroke-width:787.402;stroke-dasharray:none" /><g
           id="g1157"
           transform="rotate(90,-94718.5,209549)"
           style="stroke:#ff0000;stroke-width:787.402;stroke-dasharray:none" /><g
           id="g1161"
           transform="rotate(90,-91966,160526.5)"
           style="stroke:#ff0000;stroke-width:787.402;stroke-dasharray:none" /><g
           id="g1165"
           transform="rotate(90,-92431,143024.5)"
           style="stroke:#ff0000;stroke-width:787.402;stroke-dasharray:none" /><g
           id="g1169"
           transform="rotate(90,-77369,175123.5)"
           style="stroke:#ff0000;stroke-width:787.402;stroke-dasharray:none" /><g
           id="g1175"
           transform="rotate(90,72363.5,98193)"
           style="stroke:#ff0000;stroke-width:787.402;stroke-dasharray:none" /><g
           id="g1179"
           transform="rotate(90,68861,98753.5)"
           style="stroke:#ff0000;stroke-width:787.402;stroke-dasharray:none" /><g
           id="g1183"
           transform="rotate(90,74805.5,98625)"
           style="stroke:#ff0000;stroke-width:787.402;stroke-dasharray:none" /><g
           id="g1187"
           transform="rotate(90,43335.5,74897)"
           style="stroke:#ff0000;stroke-width:787.402;stroke-dasharray:none" /><g
           id="g1195"
           transform="rotate(90,20822.5,46652)"
           style="stroke:#ff0000;stroke-width:787.402;stroke-dasharray:none" /><g
           id="g1199"
           transform="rotate(90,20262,50154.5)"
           style="stroke:#ff0000;stroke-width:787.402;stroke-dasharray:none" /><g
           id="g1203"
           transform="rotate(90,20390.5,44210)"
           style="stroke:#ff0000;stroke-width:787.402;stroke-dasharray:none" /><g
           id="g1207"
           transform="rotate(90,44118.5,75680)"
           style="stroke:#ff0000;stroke-width:787.402;stroke-dasharray:none" /><g
           id="g1213"
           transform="rotate(90,-58281,228837.5)"
           style="stroke:#ff0000;stroke-width:787.402;stroke-dasharray:none" /><g
           id="g1217"
           transform="rotate(90,-57720.5,225335)"
           style="stroke:#ff0000;stroke-width:787.402;stroke-dasharray:none" /><g
           id="g1221"
           transform="rotate(90,-57849,231279.5)"
           style="stroke:#ff0000;stroke-width:787.402;stroke-dasharray:none" /><g
           id="g1225"
           transform="rotate(90,-81577,199809.5)"
           style="stroke:#ff0000;stroke-width:787.402;stroke-dasharray:none"><path
             id="path1227"
             style="mix-blend-mode:lighten;fill:#000000;stroke:#000000;stroke-width:787.402;stroke-linecap:round;stroke-linejoin:round;stroke-miterlimit:10;stroke-dasharray:none;stroke-opacity:1"
             class="UnoptimicedTransforms"
             d="m 10763.148,-71306.249 c 3218.813,603.752 6185.461,2159.597 8514.109,4466.453 1779.532,1794.566 3273.96,3850.765 4431.389,6096.472 1220.383,2605.589 1859.831,5446.169 1873.24,8323.495 l 72.614,3282.329 77,3283 V 3402.25 c 0,1165.3151 -709.614,2213.457 -1791.807,2646.355 -1082.192,432.8982 -2318.916,163.3291 -3122.016,-680.1444 C 16683.631,1026.895 10949.971,-1430.926 4952.8002,-1431.5 H -28894.24 c -12100.023,0 -21909.24,9809.217 -21909.75,21909.75 l -0.01,29194 c 0.5,6012.405 2471.504,11760.832 6834.551,15898.273 846.534,803.084 1118.352,2040.712 686.189,3124.379 -432.163,1083.667 -1481.058,1794.598 -2647.97,1794.598 l -206802.49,0.133 c -2629.33,-106 -5249.66,-355.844 -7850.24,-748.719 -3221.51,-603.818 -6188.31,-2159.38 -8516.89,-4465.722 -1779.42,-1794.103 -3274.04,-3850.159 -4431.83,-6095.95 -1220.77,-2605.667 -1860.49,-5446.185 -1874.68,-8324.462 l -73.12,-3283.28 -77.01,-3282 v -90144 l 77.01,-3283 73.12,-3283.28 c 14.19,-2878.277 653.91,-5718.795 1874.68,-8324.462 1157.79,-2245.791 2652.41,-4301.847 4431.84,-6095.949 2328.59,-2306.343 5295.39,-3861.905 8516.9,-4465.722 2600.58,-392.876 5220.91,-642.72 7850.22,-748.72 l 255645.4031,0.141 c 2633.2695,106.39 5253.5679,356.484 7851.4649,749.243 z"
             sodipodi:nodetypes="cccccccsccccccsccccccccccccccccc" /></g></g></g></g></svg>
