<?xml version="1.0" encoding="UTF-8" standalone="no"?>
<!-- Created with Inkscape (http://www.inkscape.org/) -->

<svg
   width="74.792671mm"
   height="157.66246mm"
   viewBox="0 0 74.792671 157.66246"
   version="1.1"
   id="svg1"
   xml:space="preserve"
   inkscape:version="1.2.2 (b0a84865, 2022-12-01)"
   sodipodi:docname="iPhone 12 pro max_svg.svg"
   xmlns:inkscape="http://www.inkscape.org/namespaces/inkscape"
   xmlns:sodipodi="http://sodipodi.sourceforge.net/DTD/sodipodi-0.dtd"
   xmlns="http://www.w3.org/2000/svg"
   xmlns:svg="http://www.w3.org/2000/svg"><sodipodi:namedview
     id="namedview1"
     pagecolor="#ffffff"
     bordercolor="#000000"
     borderopacity="0.25"
     inkscape:showpageshadow="2"
     inkscape:pageopacity="0.0"
     inkscape:pagecheckerboard="0"
     inkscape:deskcolor="#d1d1d1"
     inkscape:document-units="mm"
     inkscape:zoom="0.52312496"
     inkscape:cx="99.402636"
     inkscape:cy="343.13025"
     inkscape:window-width="1419"
     inkscape:window-height="1027"
     inkscape:window-x="0"
     inkscape:window-y="62"
     inkscape:window-maximized="0"
     inkscape:current-layer="layer-oc2"
     showgrid="false"><inkscape:page
       x="0"
       y="0"
       width="74.792671"
       height="157.66246"
       id="page1"
       margin="0"
       bleed="0" /></sodipodi:namedview><defs
     id="defs1"><clipPath
       clipPathUnits="userSpaceOnUse"
       id="clipPath4"><path
         d="M 18189,0 H 269232 V 390177 H 18189 V 0"
         transform="rotate(-90,-69084.001,195819.5)"
         id="path4" /></clipPath><clipPath
       clipPathUnits="userSpaceOnUse"
       id="clipPath6"><path
         d="M 18189,0 H 269232 V 390177 H 18189 V 0"
         transform="rotate(-90,-86375.501,213111)"
         id="path6" /></clipPath><clipPath
       clipPathUnits="userSpaceOnUse"
       id="clipPath8"><path
         d="M 18189,0 H 269232 V 390177 H 18189 V 0"
         transform="rotate(-90,-88240.001,233141.5)"
         id="path8" /></clipPath></defs><g
     inkscape:label="Layer 1"
     inkscape:groupmode="layer"
     id="layer1"
     transform="translate(-69.906259,-50.015275)" /><g
     id="layer-oc1"
     inkscape:groupmode="layer"
     inkscape:label="0"
     transform="matrix(0.26458333,0,0,0.26458335,150.09375,-50.015275)" /><g
     id="layer-oc2"
     inkscape:groupmode="layer"
     inkscape:label="20"
     transform="matrix(0.26458333,0,0,0.26458335,150.09375,-50.015275)"><path
       id="path9"
       style="mix-blend-mode:lighten;fill:#000000;stroke:#000000;stroke-width:1.88976;stroke-linecap:round;stroke-linejoin:round;stroke-miterlimit:10;stroke-dasharray:none;stroke-opacity:1"
       d="m -333.10359,189.97936 -100.72679,0 c -2.0658,-3.8e-4 -3.91031,1.2963 -4.61163,3.2419 -0.70133,1.94559 -0.10893,4.1225 1.47931,5.44215 10.81909,8.98462 17.08033,22.32715 17.08133,36.40382 v 63.46842 c 10e-4,26.12421 -21.15542,47.30238 -47.25373,47.30231 h -54.15747 c -14.06062,7e-5 -27.39137,-6.26839 -36.36794,-17.10149 -1.31843,-1.59157 -3.49311,-2.18457 -5.43671,-1.48253 -1.94359,0.70204 -3.23894,2.54845 -3.24013,4.61752 l -0.001,406.57241 c 0.0626,3.40251 0.29806,6.80199 0.70642,10.18494 0.76776,7.18724 3.38243,14.05076 7.58992,19.92277 4.08896,5.5068 9.73691,9.65597 16.20994,11.90913 5.0105,1.75871 10.23882,2.82274 15.5455,3.16285 2.49852,0.15145 4.9919,0.26974 7.49068,0.35524 l 185.70562,-9e-5 c 2.49944,-0.0856 4.99282,-0.20386 7.49137,-0.35536 5.30672,-0.34015 10.53504,-1.40418 15.54669,-3.16289 6.47418,-2.25317 12.12215,-6.40235 16.21018,-11.90914 4.20659,-5.87201 6.82125,-12.73554 7.58872,-19.92262 0.40808,-3.3828 0.64353,-6.78228 0.70575,-10.18475 l -9e-5,-502.93367 c -0.0626,-3.40811 -0.29842,-6.80756 -0.70644,-10.18745 -0.76781,-7.18418 -3.38313,-14.04743 -7.59005,-19.91873 -4.08833,-5.50609 -9.73668,-9.65474 -16.21193,-11.90764 -5.01265,-1.75862 -10.24107,-2.82214 -15.55869,-3.16235 -2.50942,-0.15184 -5.00282,-0.26987 -7.48861,-0.35475 z"
       sodipodi:nodetypes="ccsccccccsccccccccccccccccccc" /></g></svg>
