<?xml version="1.0" encoding="UTF-8" standalone="no"?>
<!-- Created with Inkscape (http://www.inkscape.org/) -->

<svg
   width="75.620026mm"
   height="158.31392mm"
   viewBox="0 0 75.620025 158.31392"
   version="1.1"
   id="svg5"
   xml:space="preserve"
   inkscape:version="1.2.2 (b0a84865, 2022-12-01)"
   sodipodi:docname="iPhone 13 Pro Max.svg"
   xmlns:inkscape="http://www.inkscape.org/namespaces/inkscape"
   xmlns:sodipodi="http://sodipodi.sourceforge.net/DTD/sodipodi-0.dtd"
   xmlns="http://www.w3.org/2000/svg"
   xmlns:svg="http://www.w3.org/2000/svg"><sodipodi:namedview
     id="namedview7"
     pagecolor="#ffffff"
     bordercolor="#000000"
     borderopacity="0.25"
     inkscape:showpageshadow="2"
     inkscape:pageopacity="0.0"
     inkscape:pagecheckerboard="0"
     inkscape:deskcolor="#d1d1d1"
     inkscape:document-units="mm"
     showgrid="false"
     inkscape:zoom="0.78127806"
     inkscape:cx="35.198736"
     inkscape:cy="306.54899"
     inkscape:window-width="1390"
     inkscape:window-height="1027"
     inkscape:window-x="0"
     inkscape:window-y="145"
     inkscape:window-maximized="0"
     inkscape:current-layer="svg5" /><defs
     id="defs2"><clipPath
       clipPathUnits="userSpaceOnUse"
       id="clipPath200"><path
         d="M 273,0 H 3403 V 5852 H 273 V 0"
         id="path198" /></clipPath><clipPath
       clipPathUnits="userSpaceOnUse"
       id="clipPath208"><path
         d="M 273,0 H 3403 V 5852 H 273 V 0"
         id="path206" /></clipPath><clipPath
       clipPathUnits="userSpaceOnUse"
       id="clipPath220"><path
         d="M 273,0 H 3403 V 5852 H 273 V 0"
         id="path218" /></clipPath></defs><g
     inkscape:label="Layer 1"
     inkscape:groupmode="layer"
     id="layer1"
     transform="translate(-255.78405,-68.285202)" /><g
     id="g192"
     transform="matrix(0.03276431,0,0,-0.03282478,-23.328189,163.69718)"
     style="stroke:#000000"><g
       id="g194"
       style="stroke:#000000"><g
         id="g196"
         clip-path="url(#clipPath200)"
         style="stroke:#000000" /></g><g
       id="g202"
       style="stroke:#000000"><g
         id="g204"
         clip-path="url(#clipPath208)"
         style="stroke:#000000" /></g><g
       id="g214"
       style="stroke:#000000"><g
         id="g216"
         clip-path="url(#clipPath220)"
         style="stroke:#000000"><g
           id="g226"
           transform="rotate(90,-1228,2833.5)"
           style="stroke:#000000" /><g
           id="g234"
           transform="rotate(90,1088.5,1592)"
           style="stroke:#000000" /><g
           id="g238"
           transform="rotate(90,-983.5,3664)"
           style="stroke:#000000" /><g
           id="g244"
           transform="rotate(90,274.5,778)"
           style="stroke:#000000" /><g
           id="g248"
           transform="rotate(90,-1490,2571.5)"
           style="stroke:#000000" /><g
           id="g252"
           transform="rotate(90,-1473.5,2244)"
           style="stroke:#000000" /><g
           id="g256"
           transform="rotate(90,-1506,3111.5)"
           style="stroke:#000000" /><g
           id="g260"
           transform="rotate(90,-1490,3438.5)"
           style="stroke:#000000" /><path
           id="path264"
           style="fill:#000000;stroke:#000000;stroke-width:6;stroke-linecap:round;stroke-linejoin:round;stroke-miterlimit:10;stroke-dasharray:none;stroke-opacity:1"
           d="M 2014.5,4061.25 C 2015,3835.3394 1831.6606,3652 1605.25,3652 h -524 c -101.35307,0 -199.32794,37.7715 -274.40321,105.9372 -15.74244,14.4283 -38.74302,18.1206 -58.44438,9.3819 C 728.70104,3758.5805 716,3739.0525 715.5,3717.25 v -3214 C 716,317.65617 866.65617,167 1052.25,167 h 1628 c 186.0938,0 336.75,150.65617 336.25,336.25 V 4647.2661 C 3016.9822,4833.3635 2866.3312,4984 2680.25,4983.5 l -732,-0.5 c -21.3053,0 -40.8353,-12.7044 -49.5723,-32.4096 -8.737,-19.7052 -5.0391,-42.7084 9.8509,-58.3994 68.6607,-75.0262 106.4614,-173.0216 105.9714,-274.9214 z"
           sodipodi:nodetypes="ccccsccccccccsccc" /></g></g></g></svg>
