<?xml version="1.0" encoding="UTF-8" standalone="no"?>
<!-- Created with Inkscape (http://www.inkscape.org/) -->

<svg
   width="68.968102mm"
   height="160.22876mm"
   viewBox="0 0 68.968102 160.22876"
   version="1.1"
   id="svg5"
   xml:space="preserve"
   inkscape:version="1.2.2 (b0a84865, 2022-12-01)"
   sodipodi:docname="S23_Ultra.svg"
   xmlns:inkscape="http://www.inkscape.org/namespaces/inkscape"
   xmlns:sodipodi="http://sodipodi.sourceforge.net/DTD/sodipodi-0.dtd"
   xmlns="http://www.w3.org/2000/svg"
   xmlns:svg="http://www.w3.org/2000/svg"><sodipodi:namedview
     id="namedview7"
     pagecolor="#ffffff"
     bordercolor="#000000"
     borderopacity="0.25"
     inkscape:showpageshadow="2"
     inkscape:pageopacity="0.0"
     inkscape:pagecheckerboard="0"
     inkscape:deskcolor="#d1d1d1"
     inkscape:document-units="mm"
     showgrid="false"
     inkscape:zoom="0.48327587"
     inkscape:cx="185.19443"
     inkscape:cy="419.01533"
     inkscape:window-width="1390"
     inkscape:window-height="1027"
     inkscape:window-x="0"
     inkscape:window-y="62"
     inkscape:window-maximized="0"
     inkscape:current-layer="svg5" /><defs
     id="defs2" /><g
     inkscape:label="Layer 1"
     inkscape:groupmode="layer"
     id="layer1"
     transform="translate(-52.996821,-33.242677)" /><g
     id="g14421"
     style="stroke:#ff0000;stroke-width:0.1;stroke-dasharray:none"
     transform="matrix(6.2854781,0,0,6.3913541,-744.12078,-937.6066)"><path
       id="path7581-3"
       style="fill:#000000;stroke:none;stroke-width:0.1;stroke-linecap:round;stroke-linejoin:round;stroke-miterlimit:10;stroke-dasharray:none;stroke-opacity:1"
       d="m 123.34267,146.90972 c -0.0583,-0.0582 -0.0687,0.0441 0,0 z m -1.42341,6.02721 c 0.0141,-0.0141 0.0352,-0.0247 0.0564,-0.0247 h 0.6985 c 0.87491,0 1.58399,-0.70908 1.58397,-1.58397 v -2.83633 c 2e-5,-0.5962 -0.33512,-1.143 -0.86783,-1.41464 -0.0705,-0.0353 -0.10931,-0.11643 -0.0917,-0.19403 0.0212,-0.0777 0.0882,-0.13405 0.16934,-0.13405 h 5.69736 c 0.0811,0 0.14464,0.067 0.14464,0.14463 v 0 24.68034 c 0,0.0811 -0.0635,0.14464 -0.14464,0.14464 h -10.58334 c -0.0811,0 -0.14463,-0.0635 -0.14463,-0.14464 v -16.002 c 0,-0.0706 0.0424,-0.13407 0.10936,-0.16227 0.0635,-0.0282 0.1411,-0.0106 0.1905,0.0388 0.52564,0.53269 1.31939,0.69497 2.01436,0.40922 0.69144,-0.28222 1.143,-0.95603 1.14298,-1.70392 l 2e-5,-1.16066 c 4e-5,-0.0211 0.007,-0.0423 0.0247,-0.0564 z"
       sodipodi:nodetypes="cccccccccccccccccccccccccccccc" /></g></svg>
