<?xml version="1.0" encoding="UTF-8" standalone="no"?>
<!-- Created with Inkscape (http://www.inkscape.org/) -->

<svg
   width="72.808617mm"
   height="159.70877mm"
   viewBox="0 0 72.808617 159.70877"
   version="1.1"
   id="svg5"
   xml:space="preserve"
   inkscape:version="1.2.2 (b0a84865, 2022-12-01)"
   sodipodi:docname="S22_Ultra.svg"
   xmlns:inkscape="http://www.inkscape.org/namespaces/inkscape"
   xmlns:sodipodi="http://sodipodi.sourceforge.net/DTD/sodipodi-0.dtd"
   xmlns="http://www.w3.org/2000/svg"
   xmlns:svg="http://www.w3.org/2000/svg"><sodipodi:namedview
     id="namedview7"
     pagecolor="#ffffff"
     bordercolor="#000000"
     borderopacity="0.25"
     inkscape:showpageshadow="2"
     inkscape:pageopacity="0.0"
     inkscape:pagecheckerboard="0"
     inkscape:deskcolor="#d1d1d1"
     inkscape:document-units="mm"
     showgrid="false"
     inkscape:zoom="0.68298392"
     inkscape:cx="202.05454"
     inkscape:cy="447.30189"
     inkscape:window-width="1913"
     inkscape:window-height="1027"
     inkscape:window-x="0"
     inkscape:window-y="62"
     inkscape:window-maximized="0"
     inkscape:current-layer="layer1" /><defs
     id="defs2" /><g
     inkscape:label="Layer 1"
     inkscape:groupmode="layer"
     id="layer1"
     transform="translate(-44.141057,-53.364951)"><g
       id="g14374"
       style="stroke:#ff0000;stroke-width:0.1;stroke-dasharray:none"
       transform="matrix(6.2954479,0,0,6.3912958,-622.09524,-823.2655)"><path
         id="path7421-8"
         style="fill:#000000;stroke:none;stroke-width:0.1;stroke-linecap:round;stroke-linejoin:round;stroke-miterlimit:10;stroke-dasharray:none;stroke-opacity:1"
         d="m 109.67062,142.94622 h 0.59972 c 0.77964,0 1.41464,-0.63147 1.41464,-1.41464 v -2.99508 c 0,-0.31045 -0.1023,-0.61031 -0.28929,-0.85725 -0.067,-0.0882 -0.0776,-0.20812 -0.0282,-0.30692 0.0494,-0.0988 0.14817,-0.16228 0.26106,-0.16228 h 5.52803 c 0.10227,0 0.18697,0.0847 0.18697,0.18698 v 24.51452 c 0,0.10228 -0.0847,0.18698 -0.18697,0.18698 h -11.09134 c -0.10227,0 -0.18697,-0.0847 -0.18697,-0.18698 v -16.48177 c 0,-0.16228 0.13406,-0.29281 0.29631,-0.29281 h 0.0706 c 0.0917,0 0.17643,0.0388 0.23283,0.11289 0.46567,0.58561 1.24884,0.81139 1.95792,0.56797 0.70555,-0.24694 1.17828,-0.91369 1.17828,-1.66158 l 2e-5,-1.15355 c 2e-5,-0.0318 0.0247,-0.0565 0.0564,-0.0565 z"
         sodipodi:nodetypes="cccccccccccccsccccccccccccccc" /></g></g></svg>
